<svg width="35" height="35" viewBox="0 0 35 35" xmlns="http://www.w3.org/2000/svg" xmlns:xlink="http://www.w3.org/1999/xlink"><title>35px</title><defs><path d="M17.495 34.99c9.662 0 17.495-7.833 17.495-17.495S27.157 0 17.495 0 0 7.833 0 17.495 7.833 34.99 17.495 34.99z" id="b"/><circle id="a" cx="17.5" cy="17.5" r="17.5"/><mask id="d" x="0" y="0" width="35" height="35" fill="#fff"><use xlink:href="#a"/></mask></defs><g fill="none" fill-rule="evenodd"><mask id="c" fill="#fff"><use xlink:href="#b"/></mask><use fill="#DDE1E5" xlink:href="#b"/><path d="M23.39 12.285c-.078.788 0 1.36-.356 2.738 1.46.373.355 2.45.268 2.643-.14.31-.268.53-.834.778-.14.124-.228.31-.268.56-.198.953-.516 1.71-.953 2.27-.436.56-.655 1.068-.655 1.524 0 1.244.338 2.23 1.013 2.955.675.726 1.945 1.44 3.81 2.146 4.05 1.492 6.076 2.542 6.076 3.793-5.368 2.676-9.9 3.26-13.995 3.297-4.093-.037-8.627-.62-13.996-3.297 0-1.25 2.024-2.3 6.074-3.794 1.866-.706 3.137-1.42 3.812-2.147.675-.726 1.012-1.71 1.012-2.955 0-.456-.218-.964-.655-1.524-.437-.56-.754-1.317-.953-2.27-.04-.25-.13-.436-.268-.56-.566-.25-.695-.467-.834-.778-.086-.193-1.19-2.27.268-2.643-.357-1.377-.278-1.95-.357-2.738-.08-1.12.356-5.287 5.895-5.287 5.54 0 5.976 4.168 5.896 5.287z" fill="#FFF" mask="url(#c)"/><use stroke="#CFD7DF" mask="url(#d)" stroke-width="2" xlink:href="#a"/></g></svg>