<svg width="1182" height="192" viewBox="0 0 1182 192" xmlns="http://www.w3.org/2000/svg"><title>Totara Learn</title><g fill="none" fill-rule="evenodd"><path fill="#69BD45" d="M776.533 162.92h13.52V9.706h-13.52M893.266 101.81c-.64-20.383-13.306-39.48-35.19-39.48-22.104 0-34.334 19.313-36.477 39.48h71.666zM821.6 113.19c.213 19.733 10.51 43.553 36.477 43.553 19.743 0 30.466-11.587 34.762-28.32h13.518c-5.795 25.105-20.387 39.696-48.28 39.696-35.19 0-49.998-27.038-49.998-58.58 0-29.188 14.808-58.58 49.997-58.58 35.616 0 49.783 31.112 48.708 62.23H821.6zM991.67 104.39h-.428c-1.72 3.216-7.73 4.288-11.37 4.93-22.965 4.083-51.505 3.87-51.505 25.537 0 13.522 12.017 21.886 24.677 21.886 20.603 0 38.84-13.09 38.625-34.757V104.39zm-72.1-16.312c1.287-25.96 19.528-37.118 44.848-37.118 19.527 0 40.77 6.008 40.77 35.616v58.793c0 5.15 2.575 8.158 7.938 8.158 1.502 0 3.223-.427 4.295-.862v11.374c-3.005.643-5.148.86-8.798.86-13.732 0-15.88-7.725-15.88-19.312h-.427c-9.442 14.375-19.1 22.53-40.343 22.53-20.384 0-37.12-10.09-37.12-32.4 0-31.112 30.257-32.19 59.435-35.623 11.16-1.286 17.382-2.786 17.382-15.018 0-18.244-13.088-22.746-28.968-22.746-16.74 0-29.185 7.725-29.615 25.748H919.57zM1028.907 52.51h12.446v25.966h.432c6.865-17.81 21.884-28.326 41.84-27.467v13.518c-24.458-1.286-41.2 16.737-41.2 39.7v59.007h-13.518V52.51M1092 54.175h13.52v19.1h.426c4.936-13.305 19.74-22.315 35.408-22.315 31.114 0 40.554 16.307 40.554 42.7v71.24h-13.52V95.806c0-19.102-6.223-33.476-28.107-33.476-21.456 0-34.334 16.31-34.76 37.98v64.59H1092V54.174"/><path d="M206.267 75.258V53.304h14.91V21.84h36.363v31.464h18.59v21.954h-18.59v48.11c0 7.347.953 12.215 2.86 14.61 1.903 2.38 5.478 3.565 10.722 3.565 1.162 0 2.06-.015 2.708-.046.648-.034 1.28-.083 1.888-.15v23.174c-3.747.755-7.455 1.333-11.13 1.743-3.678.403-7.22.61-10.62.61-12.6 0-21.212-3.085-25.842-9.246-4.632-6.164-6.95-19.275-6.95-39.366V75.26h-14.91M313.923 107.877c0 10.15 1.87 17.95 5.618 23.394 3.748 5.456 9.055 8.174 15.935 8.174 6.942 0 12.303-2.74 16.086-8.224 3.78-5.48 5.667-13.267 5.667-23.343 0-10.002-1.888-17.738-5.666-23.177-3.782-5.445-9.143-8.168-16.085-8.168-6.948 0-12.272 2.696-15.985 8.113-3.713 5.413-5.567 13.16-5.567 23.232zm-37.283 0c0-18.588 5.21-33.116 15.63-43.607 10.42-10.48 24.818-15.737 43.205-15.737 18.45 0 32.9 5.256 43.354 15.737 10.45 10.49 15.676 25.02 15.676 43.607 0 18.59-5.225 33.14-15.677 43.67-10.455 10.518-24.906 15.78-43.355 15.78-18.523 0-32.957-5.252-43.307-15.73-10.352-10.48-15.528-25.05-15.528-43.72zM390.693 75.258V53.304h14.912V21.84h36.36v31.464h18.59v21.954h-18.59v48.11c0 7.347.955 12.215 2.86 14.61 1.905 2.38 5.482 3.565 10.723 3.565 1.156 0 2.058-.015 2.706-.046.653-.034 1.28-.083 1.89-.15v23.174c-3.74.755-7.454 1.333-11.133 1.743-3.678.403-7.22.61-10.618.61-12.6 0-21.212-3.085-25.842-9.246-4.635-6.164-6.945-19.275-6.945-39.366V75.26h-14.912M530.018 112.442c-2.8 1.767-7.707 3.407-14.713 4.902-3.414.682-5.994 1.264-7.763 1.742-4.36 1.223-7.438 2.786-9.248 4.698-1.798 1.903-2.708 4.458-2.708 7.66 0 3.95 1.23 7.138 3.686 9.55 2.45 2.42 5.68 3.626 9.697 3.626 6.194 0 11.254-1.79 15.166-5.366 3.912-3.58 5.882-8.267 5.882-14.048v-12.764zm40.035 52.297h-37.077c-.412-1.777-.772-3.614-1.07-5.517-.318-1.905-.604-3.878-.874-5.918-5.108 5.098-10.536 8.88-16.29 11.33-5.754 2.448-12.07 3.68-18.947 3.68-10.69 0-19.152-2.952-25.386-8.825-6.223-5.9-9.343-13.844-9.343-23.864 0-9.185 2.438-16.666 7.3-22.415 4.872-5.75 12.242-9.785 22.116-12.113 5.443-1.22 12.354-2.543 20.738-3.977 12.523-2.038 18.798-5.038 18.798-8.976v-2.662c0-3.208-1.218-5.633-3.63-7.305-2.415-1.67-6.016-2.5-10.78-2.5-5.178 0-9.282 1.052-12.308 3.168-3.03 2.1-4.923 5.203-5.66 9.3h-33.51c1.768-12.535 6.96-21.865 15.573-27.986 8.622-6.138 20.85-9.2 36.723-9.2 9.872 0 18.198 1.184 24.97 3.574 6.778 2.38 12.068 5.987 15.886 10.82 2.654 3.478 4.528 7.61 5.615 12.406 1.082 4.802 1.638 12.524 1.638 23.146v42.07c0 5.048.454 9.013 1.37 11.9.923 2.9 2.304 4.787 4.148 5.675v4.19zM577.547 164.74V53.72h34.94v19.396c3.877-7.62 8.715-13.187 14.503-16.693 5.783-3.512 13.143-5.324 22.054-5.465v35.946c-1.566-.2-3.107-.35-4.645-.456-1.53-.095-2.98-.155-4.34-.155-5.584 0-10.192.84-13.84 2.5-3.642 1.676-6.554 4.246-8.733 7.716-1.36 2.326-2.332 5.63-2.912 9.958-.577 4.314-.866 11.325-.866 20.995v37.276h-36.163M719.286 112.442c-2.79 1.767-7.693 3.407-14.703 4.902-3.405.682-5.997 1.264-7.766 1.742-4.356 1.223-7.433 2.786-9.245 4.698-1.806 1.903-2.708 4.458-2.708 7.66 0 3.95 1.227 7.138 3.68 9.55 2.452 2.42 5.684 3.626 9.703 3.626 6.197 0 11.25-1.79 15.164-5.366 3.918-3.58 5.876-8.267 5.876-14.048v-12.764zm40.045 52.297h-37.086c-.405-1.777-.757-3.614-1.073-5.517-.3-1.905-.593-3.878-.865-5.918-5.106 5.098-10.534 8.88-16.293 11.33-5.753 2.448-12.063 3.68-18.94 3.68-10.69 0-19.156-2.952-25.375-8.825-6.237-5.9-9.35-13.844-9.35-23.864 0-9.185 2.43-16.666 7.297-22.415 4.872-5.75 12.237-9.785 22.11-12.113 5.454-1.22 12.368-2.543 20.737-3.977 12.528-2.038 18.796-5.038 18.796-8.976v-2.662c0-3.208-1.204-5.633-3.618-7.305-2.42-1.67-6.016-2.5-10.784-2.5-5.172 0-9.282 1.052-12.306 3.168-3.03 2.1-4.926 5.203-5.664 9.3h-33.5c1.767-12.535 6.96-21.865 15.57-27.986 8.607-6.138 20.852-9.2 36.72-9.2 9.874 0 18.2 1.184 24.975 3.574 6.77 2.38 12.062 5.987 15.88 10.82 2.654 3.478 4.527 7.61 5.617 12.406 1.08 4.802 1.63 12.524 1.63 23.146v42.07c0 5.048.457 9.013 1.38 11.9.916 2.9 2.297 4.787 4.144 5.675v4.19z" fill="#fff"/><path d="M115.827 48.303c0-19.707-9.39-37.213-23.944-48.303-14.538 11.09-23.936 28.596-23.936 48.303 0 19.7 9.398 37.205 23.936 48.303 14.553-11.098 23.944-28.604 23.944-48.303M56.31 86.172C38.447 75.854 17.667 75.218 0 82.592c2.453 19 13.383 36.663 31.258 46.976 17.853 10.32 38.642 10.97 56.313 3.582-2.443-18.993-13.394-36.67-31.26-46.978M129.907 86.172c-12.21 7.042-21.818 18.09-27.1 31.156-2.518 6.217-3.898 12.73-4.61 19.36-.846 7.766-1.162 15.504-1.128 23.257l.023 21.07h2.94c-.015-.547.382-12.57.586-14.804.247-2.976.705-5.986 1.35-8.888 1.008-4.54 2.813-9.355 6.252-12.614 3.875-3.666 9.272-5.16 14.4-6.054 5.693-.993 11.354-1.26 16.96-2.776 5.37-1.45 10.563-3.524 15.397-6.31 17.842-10.313 28.804-27.977 31.242-46.975-17.67-7.375-38.455-6.74-56.315 3.58" fill="#69BD45"/></g></svg>
