<svg width="512" height="512" viewBox="0 0 512 512" xmlns="http://www.w3.org/2000/svg" xmlns:xlink="http://www.w3.org/1999/xlink"><title>512px</title><defs><path d="M255.93 511.858c141.345 0 255.928-114.583 255.928-255.93C511.858 114.584 397.275 0 255.928 0 114.584 0 0 114.583 0 255.93c0 141.345 114.583 255.928 255.93 255.928z" id="b"/><circle id="a" cx="256" cy="256" r="256"/><mask id="d" x="0" y="0" width="512" height="512" fill="#fff"><use xlink:href="#a"/></mask></defs><g fill="none" fill-rule="evenodd"><mask id="c" fill="#fff"><use xlink:href="#b"/></mask><use fill="#DDE1E5" xlink:href="#b"/><path d="M342.183 179.72c-1.162 11.525 0 19.905-5.228 40.038 21.346 5.46 5.187 35.84 3.92 38.674-2.032 4.55-3.92 7.734-12.197 11.374-2.033 1.82-3.34 4.55-3.92 8.19-2.904 13.953-7.55 25.024-13.94 33.214-6.39 8.19-9.584 15.62-9.584 22.294 0 18.2 4.937 32.607 14.81 43.224 9.875 10.616 28.462 21.08 55.76 31.394 59.246 21.84 88.868 37.195 88.868 55.508-78.545 39.143-144.86 47.687-204.743 48.228-59.884-.54-126.2-9.085-204.744-48.228 0-18.313 29.622-33.67 88.867-55.508 27.3-10.313 45.886-20.778 55.76-31.394 9.874-10.617 14.81-25.024 14.81-43.224 0-6.673-3.193-14.104-9.582-22.294-6.39-8.19-11.035-19.26-13.94-33.214-.58-3.64-1.887-6.37-3.92-8.19-8.277-3.64-10.165-6.825-12.198-11.374-1.265-2.833-17.425-33.214 3.92-38.674-5.226-20.133-4.065-28.513-5.226-40.04-1.162-16.378 5.227-77.346 86.253-77.346 81.025 0 87.414 60.968 86.253 77.347z" fill="#FFF" mask="url(#c)"/><use stroke="#C9CDD2" mask="url(#d)" stroke-width="4" xlink:href="#a"/></g></svg>