<svg width="100" height="100" viewBox="0 0 100 100" xmlns="http://www.w3.org/2000/svg" xmlns:xlink="http://www.w3.org/1999/xlink"><title>100px</title><defs><path d="M49.986 99.972c27.607 0 49.986-22.38 49.986-49.986C99.972 22.38 77.592 0 49.986 0 22.38 0 0 22.38 0 49.986c0 27.607 22.38 49.986 49.986 49.986z" id="b"/><circle id="a" cx="50" cy="50" r="50"/><mask id="d" x="0" y="0" width="100" height="100" fill="#fff"><use xlink:href="#a"/></mask></defs><g fill="none" fill-rule="evenodd"><mask id="c" fill="#fff"><use xlink:href="#b"/></mask><use fill="#DDE1E5" xlink:href="#b"/><path d="M66.833 35.1c-.227 2.253 0 3.89-1.02 7.82 4.168 1.068 1.012 7.002.764 7.555-.397.89-.765 1.51-2.382 2.222-.397.355-.652.888-.766 1.6-.568 2.724-1.476 4.887-2.723 6.486-1.248 1.6-1.872 3.05-1.872 4.355 0 3.554.964 6.368 2.893 8.442 1.928 2.073 5.558 4.117 10.89 6.13 11.572 4.267 17.357 7.266 17.357 10.843-15.34 7.645-28.293 9.314-39.99 9.42-11.695-.106-24.647-1.775-39.988-9.42 0-3.577 5.786-6.576 17.357-10.842 5.332-2.013 8.962-4.057 10.89-6.13 1.93-2.074 2.894-4.888 2.894-8.442 0-1.304-.624-2.755-1.872-4.355-1.248-1.6-2.156-3.762-2.723-6.487-.113-.71-.37-1.244-.766-1.6-1.616-.71-1.985-1.332-2.382-2.22-.247-.554-3.403-6.488.766-7.555-1.02-3.93-.793-5.567-1.02-7.82-.227-3.198 1.02-15.106 16.846-15.106S67.06 31.902 66.833 35.1z" fill="#FFF" mask="url(#c)"/><use stroke="#CFD7DE" mask="url(#d)" stroke-width="2" xlink:href="#a"/></g></svg>