<?xml version="1.0" encoding="UTF-8"?>
<svg width="200px" height="80px" viewBox="0 0 200 80" version="1.1" xmlns="http://www.w3.org/2000/svg" xmlns:xlink="http://www.w3.org/1999/xlink" style="background: #A8B7C7;">
    <!-- Generator: Sketch 49.3 (51167) - http://www.bohemiancoding.com/sketch -->
    <title>Tile0202</title>
    <desc>Created with Sketch.</desc>
    <defs>
        <linearGradient x1="50%" y1="0%" x2="50%" y2="100%" id="linearGradient-1">
            <stop stop-color="#FFFFFF" offset="0%"></stop>
            <stop stop-color="#000000" offset="100%"></stop>
        </linearGradient>
    </defs>
    <g id="Tile0202" stroke="none" stroke-width="1" fill="none" fill-rule="evenodd">
        <g id="Group" transform="translate(96.052349, 33.499086) scale(-1, 1) rotate(2.000000) translate(-96.052349, -33.499086) translate(-82.947651, -40.000914)" stroke="#A0A9B2" stroke-linecap="square" stroke-width="9">
            <path d="M357.425776,139.501218 L244.434626,0.501218346" id="Line-2-Copy"></path>
            <path d="M329.425776,139.501218 L216.434626,0.501218346" id="Line-2-Copy-2"></path>
            <path d="M303.460676,140.500609 L190.469525,1.50060917" id="Line-2-Copy-5"></path>
            <path d="M276.460676,140.500609 L163.469525,1.50060917" id="Line-2-Copy-4"></path>
            <path d="M249.495575,141.5 L136.504425,2.5" id="Line-2-Copy-3"></path>
            <path d="M221.495575,141.5 L108.504425,2.5" id="Line-2-Copy-11"></path>
            <path d="M194.565374,143.498782 L81.5742238,4.49878165" id="Line-2-Copy-10"></path>
            <path d="M167.635173,145.497563 L54.6440228,6.49756331" id="Line-2-Copy-9"></path>
            <path d="M140.635173,145.497563 L27.6440228,6.49756331" id="Line-2-Copy-8"></path>
            <path d="M113.670073,146.496954 L0.678922262,7.49695414" id="Line-2-Copy-7"></path>
        </g>
        <g id="Group-Copy" transform="translate(94.000000, 32.000000) scale(-1, 1) translate(-94.000000, -32.000000) translate(-83.000000, -38.000000)" stroke="#C0CCD8" stroke-linecap="square" stroke-width="9">
            <path d="M353.5,139.5 L241.5,0.5" id="Line-2-Copy"></path>
            <path d="M326.5,139.5 L214.5,0.5" id="Line-2-Copy-2"></path>
            <path d="M300.5,139.5 L188.5,0.5" id="Line-2-Copy-5"></path>
            <path d="M273.5,139.5 L161.5,0.5" id="Line-2-Copy-4"></path>
            <path d="M246.5,139.5 L134.5,0.5" id="Line-2-Copy-3"></path>
            <path d="M219.5,139.5 L107.5,0.5" id="Line-2-Copy-11"></path>
            <path d="M192.5,139.5 L80.5,0.5" id="Line-2-Copy-10"></path>
            <path d="M165.5,139.5 L53.5,0.5" id="Line-2-Copy-9"></path>
            <path d="M139.5,139.5 L27.5,0.5" id="Line-2-Copy-8"></path>
            <path d="M112.5,139.5 L0.5,0.5" id="Line-2-Copy-7"></path>
        </g>
        <rect id="Rectangle" fill-opacity="0.3" fill="url(#linearGradient-1)" style="mix-blend-mode: multiply;" x="0" y="0" width="200" height="80"></rect>
    </g>
</svg>