<?xml version="1.0" encoding="UTF-8"?>
<svg width="49px" height="53px" viewBox="0 0 49 53" version="1.1" xmlns="http://www.w3.org/2000/svg" xmlns:xlink="http://www.w3.org/1999/xlink">
    <!-- Generator: sketchtool 52.6 (67491) - http://www.bohemiancoding.com/sketch -->
    <title>5E423FD8-162A-436A-B638-3EEF0483DD0C</title>
    <desc>Created with sketchtool.</desc>
    <g id="website" stroke="none" stroke-width="1" fill="none" fill-rule="evenodd">
        <g id="icons-" transform="translate(-608.000000, -497.000000)">
            <g id="questionnaire" transform="translate(610.000000, 499.000000)">
                <g id="_ionicons_svg_md-create-(1)" transform="translate(22.000000, 14.000000)" fill="#333333" fill-rule="nonzero">
                    <path d="M0,19.2766577 L0,24.3494582 L5.03992451,24.3494582 L19.8905031,9.40188088 L14.8506416,4.32920721 L0,19.2766577 Z M23.7885697,5.47851357 C24.3260146,4.9375628 24.3260146,4.1257245 23.7885697,3.58477373 L20.630112,0.405713072 C20.092667,-0.135237691 19.2860901,-0.135237691 18.7486452,0.405713072 L16.2621984,2.90844261 L21.3020599,7.98111628 L23.7885697,5.47851357 Z" id="Shape-Copy"></path>
                </g>
                <g id="file-icon-copy-2" stroke="#333333" stroke-width="3">
                    <path d="M25,12.375 L36.375,12.375 C36.725,12.375 37,12.1 37,11.75 C37,10.6375 36.5125,9.5875 35.6625,8.8875 L26.125,0.9375 C25.4,0.3375 24.5,0.0125 23.55,0.0125 C23.0375,0.0125 22.625,0.425 22.625,0.9375 L22.625,10 C22.625,11.3125 23.6875,12.375 25,12.375 Z" id="Path"></path>
                    <path d="M19.3026316,10.6 L19.3026316,1 L3.78947368,1 C1.70526316,1 0,2.728 0,4.84 L0,45.16 C0,47.272 1.70526316,49 3.78947368,49 L32.2105263,49 C34.2947368,49 36,47.272 36,45.16 L36,16 L24.6315789,16 C21.6947368,16 19.3026316,13.576 19.3026316,10.6 Z" id="Path-2"></path>
                    <path d="M10.5,24.5 L28.375,24.5" id="Path-6"></path>
                    <path d="M4,24.5 L7.64380476,24.5" id="Path-6-Copy-5"></path>
                    <path d="M10.5,32.5 L28.375,32.5" id="Path-6-Copy"></path>
                    <path d="M4,32.5 L7.64380476,32.5" id="Path-6-Copy-6"></path>
                    <path d="M4,40.5 L7.64380476,40.5" id="Path-6-Copy-7"></path>
                    <path d="M10.5,40.5 L28.5,40.5" id="Path-6-Copy-4"></path>
                </g>
            </g>
        </g>
    </g>
</svg>