<?xml version="1.0" encoding="utf-8"?>
<!-- Generator: Adobe Illustrator 22.1.0, SVG Export Plug-In . SVG Version: 6.00 Build 0)  -->
<svg version="1.1" id="Layer_1" xmlns="http://www.w3.org/2000/svg" xmlns:xlink="http://www.w3.org/1999/xlink" x="0px" y="0px"
	 viewBox="0 0 829.4 156.6" style="enable-background:new 0 0 829.4 156.6;" xml:space="preserve">
<style type="text/css">
	.st0{fill:#EE715A;}
	.st1{fill:#E72F6A;}
	.st2{fill:#A12F63;}
</style>
<g>
	<g>
		<g>
			<path d="M133.4,71v-9h6.1V49h15v13h7.7v9h-7.7v19.8c0,3,0.4,5,1.2,6c0.8,1,2.3,1.5,4.4,1.5c0.5,0,0.8,0,1.1,0
				c0.3,0,0.5,0,0.8-0.1v9.5c-1.5,0.3-3.1,0.5-4.6,0.7c-1.5,0.2-3,0.3-4.4,0.3c-5.2,0-8.7-1.3-10.6-3.8c-1.9-2.5-2.9-7.9-2.9-16.2
				V71H133.4z"/>
			<path d="M162.2,84.7c0-7.7,2.1-13.6,6.4-18c4.3-4.3,10.2-6.5,17.8-6.5c7.6,0,13.6,2.2,17.9,6.5c4.3,4.3,6.5,10.3,6.5,18
				s-2.2,13.7-6.5,18c-4.3,4.3-10.3,6.5-17.9,6.5c-7.6,0-13.6-2.2-17.8-6.5C164.3,98.4,162.2,92.4,162.2,84.7z M177.5,84.7
				c0,4.2,0.8,7.4,2.3,9.6c1.5,2.2,3.7,3.4,6.6,3.4c2.9,0,5.1-1.1,6.6-3.4c1.6-2.3,2.3-5.5,2.3-9.6c0-4.1-0.8-7.3-2.3-9.6
				c-1.6-2.2-3.8-3.4-6.6-3.4c-2.9,0-5.1,1.1-6.6,3.3C178.3,77.4,177.5,80.6,177.5,84.7z"/>
			<path d="M209.7,71v-9h6.1V49h15v13h7.7v9h-7.7v19.8c0,3,0.4,5,1.2,6c0.8,1,2.3,1.5,4.4,1.5c0.5,0,0.8,0,1.1,0
				c0.3,0,0.5,0,0.8-0.1v9.5c-1.5,0.3-3.1,0.5-4.6,0.7c-1.5,0.2-3,0.3-4.4,0.3c-5.2,0-8.7-1.3-10.6-3.8c-1.9-2.5-2.9-7.9-2.9-16.2
				V71H209.7z"/>
			<path d="M283.6,107.7h-15.3c-0.2-0.7-0.3-1.5-0.4-2.3c-0.1-0.8-0.2-1.6-0.4-2.4c-2.1,2.1-4.3,3.7-6.7,4.7c-2.4,1-5,1.5-7.8,1.5
				c-4.4,0-7.9-1.2-10.5-3.6c-2.6-2.4-3.8-5.7-3.8-9.8c0-3.8,1-6.9,3-9.2c2-2.4,5-4,9.1-5c2.2-0.5,5.1-1,8.5-1.6
				c5.2-0.8,7.7-2.1,7.7-3.7V75c0-1.3-0.5-2.3-1.5-3c-1-0.7-2.5-1-4.4-1c-2.1,0-3.8,0.4-5.1,1.3c-1.2,0.9-2,2.1-2.3,3.8h-13.8
				c0.7-5.2,2.9-9,6.4-11.5c3.6-2.5,8.6-3.8,15.1-3.8c4.1,0,7.5,0.5,10.3,1.5c2.8,1,5,2.5,6.5,4.5c1.1,1.4,1.9,3.1,2.3,5.1
				c0.4,2,0.7,5.2,0.7,9.5v17.3c0,2.1,0.2,3.7,0.6,4.9c0.4,1.2,0.9,2,1.7,2.3V107.7z M267.1,86.1c-1.2,0.7-3.2,1.4-6.1,2
				c-1.4,0.3-2.5,0.5-3.2,0.7c-1.8,0.5-3.1,1.1-3.8,1.9c-0.7,0.8-1.1,1.8-1.1,3.2c0,1.6,0.5,2.9,1.5,3.9c1,1,2.3,1.5,4,1.5
				c2.6,0,4.6-0.7,6.2-2.2c1.6-1.5,2.4-3.4,2.4-5.8V86.1z"/>
			<path d="M287,107.7V61.9h14.4v8c1.6-3.1,3.6-5.4,6-6.9c2.4-1.4,5.4-2.2,9.1-2.3v14.8c-0.6-0.1-1.3-0.1-1.9-0.2
				c-0.6,0-1.2-0.1-1.8-0.1c-2.3,0-4.2,0.3-5.7,1c-1.5,0.7-2.7,1.7-3.6,3.2c-0.6,1-1,2.3-1.2,4.1c-0.2,1.8-0.4,4.7-0.4,8.7v15.4H287
				z"/>
			<path d="M361.6,107.7h-15.3c-0.2-0.7-0.3-1.5-0.4-2.3c-0.1-0.8-0.2-1.6-0.4-2.4c-2.1,2.1-4.3,3.7-6.7,4.7c-2.4,1-5,1.5-7.8,1.5
				c-4.4,0-7.9-1.2-10.5-3.6c-2.6-2.4-3.9-5.7-3.9-9.8c0-3.8,1-6.9,3-9.2c2-2.4,5-4,9.1-5c2.2-0.5,5.1-1,8.5-1.6
				c5.2-0.8,7.7-2.1,7.7-3.7V75c0-1.3-0.5-2.3-1.5-3c-1-0.7-2.5-1-4.4-1c-2.1,0-3.8,0.4-5.1,1.3c-1.2,0.9-2,2.1-2.3,3.8h-13.8
				c0.7-5.2,2.9-9,6.4-11.5c3.5-2.5,8.6-3.8,15.1-3.8c4.1,0,7.5,0.5,10.3,1.5c2.8,1,5,2.5,6.5,4.5c1.1,1.4,1.9,3.1,2.3,5.1
				c0.4,2,0.7,5.2,0.7,9.5v17.3c0,2.1,0.2,3.7,0.6,4.9c0.4,1.2,0.9,2,1.7,2.3V107.7z M345.1,86.1c-1.2,0.7-3.2,1.4-6.1,2
				c-1.4,0.3-2.5,0.5-3.2,0.7c-1.8,0.5-3.1,1.1-3.8,1.9c-0.7,0.8-1.1,1.8-1.1,3.2c0,1.6,0.5,2.9,1.5,3.9c1,1,2.3,1.5,4,1.5
				c2.6,0,4.6-0.7,6.2-2.2c1.6-1.5,2.4-3.4,2.4-5.8V86.1z"/>
		</g>
	</g>
	<g>
		<path class="st0" d="M96.8,60.1c0-8.1-3.9-15.3-9.9-19.9C80.9,44.8,77,52,77,60.1c0,8.1,3.9,15.3,9.9,19.9
			C92.9,75.4,96.8,68.2,96.8,60.1z"/>
		<path class="st1" d="M71.5,75.6c-7.4-4.3-15.9-4.5-23.2-1.5c1,7.8,5.5,15.1,12.9,19.4c7.4,4.3,15.9,4.5,23.2,1.5
			C83.3,87.1,78.8,79.8,71.5,75.6z"/>
		<path class="st2" d="M101.7,75.6c-5,2.9-9,7.5-11.2,12.8c-1,2.6-1.6,5.2-1.9,8c-0.3,3.2-0.5,6.4-0.5,9.6l0,8.7h1.2
			c0-0.2,0.2-5.2,0.2-6.1c0.1-1.2,0.3-2.5,0.6-3.7c0.4-1.9,1.2-3.9,2.6-5.2c1.6-1.5,3.8-2.1,5.9-2.5c2.3-0.4,4.7-0.5,7-1.1
			c2.2-0.6,4.4-1.5,6.3-2.6c7.4-4.2,11.9-11.5,12.9-19.4C117.7,71,109.1,71.3,101.7,75.6z"/>
	</g>
</g>
<g>
	<path class="st1" d="M367.5,98.3h7.4v9.4h-7.4V98.3z"/>
	<path class="st1" d="M409.6,68.3c-2.1-1.9-5-2.9-8.7-2.9c-2.7,0-5,0.6-7,1.7c-2,1.1-3.7,2.6-5,4.4c-1.3,1.8-2.3,3.9-3,6.2
		c-0.7,2.3-1,4.7-1,7.1c0,2.4,0.3,4.8,1,7.1c0.7,2.3,1.7,4.4,3,6.2c1.3,1.8,3,3.3,5,4.4c2,1.1,4.3,1.7,7,1.7c1.7,0,3.3-0.3,4.9-1
		c1.5-0.6,2.9-1.5,4.1-2.7c1.2-1.2,2.2-2.5,2.9-4.1c0.8-1.6,1.2-3.3,1.4-5.2h5.6c-0.8,5.5-2.8,9.9-6.1,13c-3.3,3.1-7.6,4.6-12.7,4.6
		c-3.5,0-6.6-0.6-9.2-1.9c-2.7-1.3-4.9-3-6.8-5.2c-1.8-2.2-3.2-4.7-4.2-7.7c-0.9-2.9-1.4-6-1.4-9.3c0-3.3,0.5-6.4,1.4-9.3
		c0.9-2.9,2.3-5.5,4.2-7.7c1.8-2.2,4.1-3.9,6.8-5.2c2.7-1.3,5.8-1.9,9.2-1.9c4.9,0,9,1.3,12.4,3.9c3.4,2.6,5.4,6.5,6.1,11.8h-5.6
		C413,72.9,411.6,70.2,409.6,68.3z"/>
	<path class="st1" d="M454.1,62.6c2.7,1.3,4.9,3,6.8,5.2c1.8,2.2,3.2,4.7,4.2,7.7c0.9,2.9,1.4,6,1.4,9.3c0,3.3-0.5,6.4-1.4,9.3
		c-0.9,2.9-2.3,5.5-4.2,7.7c-1.8,2.2-4.1,3.9-6.8,5.2c-2.7,1.3-5.8,1.9-9.2,1.9c-3.5,0-6.6-0.6-9.2-1.9c-2.7-1.3-4.9-3-6.8-5.2
		c-1.8-2.2-3.2-4.7-4.2-7.7c-0.9-2.9-1.4-6-1.4-9.3c0-3.3,0.5-6.4,1.4-9.3c0.9-2.9,2.3-5.5,4.2-7.7c1.8-2.2,4.1-3.9,6.8-5.2
		c2.7-1.3,5.8-1.9,9.2-1.9C448.3,60.7,451.4,61.3,454.1,62.6z M437.9,67.1c-2,1.1-3.7,2.6-5,4.4c-1.3,1.8-2.3,3.9-3,6.2
		c-0.7,2.3-1,4.7-1,7.1c0,2.4,0.3,4.8,1,7.1c0.7,2.3,1.7,4.4,3,6.2c1.3,1.8,3,3.3,5,4.4c2,1.1,4.3,1.7,7,1.7s5-0.6,7-1.7
		c2-1.1,3.7-2.6,5-4.4c1.3-1.8,2.3-3.9,3-6.2c0.7-2.3,1-4.7,1-7.1c0-2.4-0.3-4.8-1-7.1c-0.7-2.3-1.7-4.4-3-6.2c-1.3-1.8-3-3.3-5-4.4
		c-2-1.1-4.3-1.7-7-1.7S439.9,65.9,437.9,67.1z"/>
	<path class="st1" d="M478,62v7.7h0.3c1.5-2.8,3.4-5,5.8-6.6c2.4-1.6,5.4-2.4,9.2-2.4c3,0,5.7,0.7,8.2,2.2c2.4,1.5,4.1,3.7,4.9,6.7
		c1.4-3,3.4-5.3,6-6.7c2.7-1.5,5.5-2.2,8.5-2.2c10.1,0,15.1,5.3,15.1,16v31h-5.6V77c0-3.8-0.8-6.7-2.4-8.6c-1.6-2-4.4-3-8.4-3
		c-2.4,0-4.4,0.5-6,1.4c-1.6,0.9-2.9,2.1-3.8,3.7c-0.9,1.5-1.6,3.3-2,5.3c-0.4,2-0.6,4-0.6,6.2v25.8h-5.6v-31c0-1.5-0.2-3-0.5-4.4
		c-0.3-1.4-0.9-2.6-1.6-3.6c-0.7-1-1.7-1.8-3-2.4c-1.2-0.6-2.7-0.9-4.5-0.9c-2.4,0-4.4,0.4-6.2,1.3c-1.7,0.9-3.2,2-4.2,3.5
		c-1.1,1.5-1.9,3.3-2.4,5.3c-0.5,2-0.8,4.3-0.8,6.7v25.5h-5.6V62H478z"/>
	<path class="st1" d="M549.7,62v7.7h0.3c1.5-2.8,3.4-5,5.8-6.6c2.4-1.6,5.4-2.4,9.2-2.4c3,0,5.7,0.7,8.2,2.2
		c2.4,1.5,4.1,3.7,4.9,6.7c1.4-3,3.4-5.3,6-6.7c2.7-1.5,5.5-2.2,8.5-2.2c10.1,0,15.1,5.3,15.1,16v31h-5.6V77c0-3.8-0.8-6.7-2.4-8.6
		c-1.6-2-4.4-3-8.4-3c-2.4,0-4.4,0.5-6,1.4c-1.6,0.9-2.9,2.1-3.8,3.7c-0.9,1.5-1.6,3.3-2,5.3c-0.4,2-0.6,4-0.6,6.2v25.8h-5.6v-31
		c0-1.5-0.2-3-0.5-4.4c-0.3-1.4-0.9-2.6-1.6-3.6c-0.7-1-1.7-1.8-3-2.4c-1.2-0.6-2.7-0.9-4.5-0.9c-2.4,0-4.4,0.4-6.2,1.3
		c-1.7,0.9-3.2,2-4.2,3.5c-1.1,1.5-1.9,3.3-2.4,5.3c-0.5,2-0.8,4.3-0.8,6.7v25.5h-5.6V62H549.7z"/>
	<path class="st1" d="M648.2,107.7v-8.2h-0.2c-1.5,3.1-3.6,5.4-6.4,7c-2.8,1.6-5.9,2.4-9.3,2.4c-2.9,0-5.4-0.4-7.4-1.2
		c-2-0.8-3.7-1.9-5-3.4c-1.3-1.5-2.2-3.3-2.8-5.4c-0.6-2.1-0.9-4.5-0.9-7.3V62h5.6v29.7c0.1,4.1,1.1,7.3,2.9,9.4
		c1.8,2.1,4.9,3.2,9.3,3.2c2.4,0,4.5-0.5,6.2-1.5c1.7-1,3.1-2.4,4.2-4.1c1.1-1.7,1.9-3.7,2.5-5.9c0.5-2.2,0.8-4.5,0.8-6.8V62h5.6
		v45.7H648.2z"/>
	<path class="st1" d="M667.4,62v7.9h0.2c1.1-2.8,2.9-5,5.7-6.7c2.7-1.7,5.7-2.5,8.9-2.5c3.2,0,5.9,0.4,8,1.2c2.2,0.8,3.9,2,5.2,3.5
		c1.3,1.5,2.2,3.3,2.7,5.5c0.5,2.2,0.8,4.6,0.8,7.3v29.4h-5.6V79.2c0-1.9-0.2-3.8-0.5-5.4s-1-3.1-1.9-4.4c-0.9-1.2-2.1-2.2-3.6-2.9
		c-1.5-0.7-3.4-1.1-5.6-1.1c-2.2,0-4.2,0.4-6,1.2c-1.7,0.8-3.2,1.9-4.4,3.3c-1.2,1.4-2.2,3-2.8,5c-0.7,1.9-1,4-1.1,6.2v26.6h-5.6V62
		H667.4z"/>
	<path class="st1" d="M713.2,44.5v8.9h-5.6v-8.9H713.2z M713.2,62v45.7h-5.6V62H713.2z"/>
	<path class="st1" d="M740.1,62v4.7h-9.3v30.8c0,1.8,0.2,3.3,0.8,4.3c0.5,1,1.8,1.6,3.8,1.7c1.6,0,3.2-0.1,4.8-0.3v4.7
		c-0.8,0-1.7,0-2.5,0.1c-0.8,0.1-1.7,0.1-2.5,0.1c-3.7,0-6.3-0.7-7.8-2.2c-1.5-1.4-2.2-4.1-2.1-8V66.7h-8V62h8V48.3h5.6V62H740.1z"
		/>
	<path class="st1" d="M747,62l15,38.9L776.1,62h5.6l-19.8,52.6c-0.8,1.9-1.6,3.6-2.3,4.8c-0.7,1.3-1.5,2.3-2.3,3
		c-0.9,0.7-1.9,1.3-3,1.6c-1.2,0.3-2.6,0.5-4.4,0.5c-1.1-0.1-2-0.1-2.6-0.1c-0.6,0-1.2-0.1-1.6-0.3v-4.7c0.6,0.1,1.3,0.2,1.9,0.3
		c0.6,0.1,1.3,0.1,1.9,0.1c1.2,0,2.3-0.2,3.1-0.5c0.8-0.4,1.5-0.8,2.1-1.5c0.6-0.6,1.1-1.4,1.5-2.3c0.4-0.9,0.9-1.9,1.3-2.9l1.9-5.1
		L741.1,62H747z"/>
</g>
</svg>
