<?xml version="1.0" encoding="UTF-8"?>
<svg width="54px" height="39px" viewBox="0 0 54 39" version="1.1" xmlns="http://www.w3.org/2000/svg" xmlns:xlink="http://www.w3.org/1999/xlink">
    <!-- Generator: sketchtool 52.6 (67491) - http://www.bohemiancoding.com/sketch -->
    <title>7788940A-0344-4B34-A666-9DA181D3C21C</title>
    <desc>Created with sketchtool.</desc>
    <g id="website" stroke="none" stroke-width="1" fill="none" fill-rule="evenodd">
        <g id="icons-" transform="translate(-444.000000, -509.000000)" stroke="#333333" stroke-width="4">
            <path d="M485.285714,520.257519 L485.285714,513.846972 C485.285714,512.277037 484.035714,511 482.506696,511 L448.779018,511 C447.25,511 446,512.277037 446,513.846972 L446,542.351839 C446,543.921774 447.25,545.210526 448.779018,545.210526 L482.506696,545.210526 C484.035714,545.210526 485.285714,543.921774 485.285714,542.363554 L485.285714,535.953008 L495.160863,543.168084 C495.39622,543.340043 495.726415,543.288649 495.898374,543.053292 C495.96441,542.962909 496,542.85387 496,542.741933 L496,513.468593 C496,513.17711 495.763706,512.940816 495.472222,512.940816 C495.360285,512.940816 495.251247,512.976405 495.160863,513.042442 L485.285714,520.257519 Z" id="Path"></path>
        </g>
    </g>
</svg>