<?xml version="1.0" encoding="UTF-8"?>
<svg width="41px" height="53px" viewBox="0 0 41 53" version="1.1" xmlns="http://www.w3.org/2000/svg" xmlns:xlink="http://www.w3.org/1999/xlink">
    <!-- Generator: sketchtool 52.6 (67491) - http://www.bohemiancoding.com/sketch -->
    <title>9BD71847-3C8C-4636-B676-9B769E0E733D</title>
    <desc>Created with sketchtool.</desc>
    <g id="website" stroke="none" stroke-width="1" fill="none" fill-rule="evenodd">
        <g id="icons-" transform="translate(-928.000000, -508.000000)" stroke="#47B59D" stroke-width="3">
            <g id="file-icon-" transform="translate(930.000000, 510.000000)">
                <path d="M25,12.375 L36.375,12.375 C36.725,12.375 37,12.1 37,11.75 C37,10.6375 36.5125,9.5875 35.6625,8.8875 L26.125,0.9375 C25.4,0.3375 24.5,0.0125 23.55,0.0125 C23.0375,0.0125 22.625,0.425 22.625,0.9375 L22.625,10 C22.625,11.3125 23.6875,12.375 25,12.375 Z" id="Path"></path>
                <path d="M19.3026316,10.6 L19.3026316,1 L3.78947368,1 C1.70526316,1 0,2.728 0,4.84 L0,45.16 C0,47.272 1.70526316,49 3.78947368,49 L32.2105263,49 C34.2947368,49 36,47.272 36,45.16 L36,16 L24.6315789,16 C21.6947368,16 19.3026316,13.576 19.3026316,10.6 Z" id="Path-2"></path>
                <path d="M10.5,24.5 L28.375,24.5" id="Path-6"></path>
                <path d="M4,24.5 L7.64380476,24.5" id="Path-6-Copy-5"></path>
                <path d="M10.5,32.5 L28.375,32.5" id="Path-6-Copy"></path>
                <path d="M4,32.5 L7.64380476,32.5" id="Path-6-Copy-6"></path>
                <path d="M4,40.5 L7.64380476,40.5" id="Path-6-Copy-7"></path>
                <path d="M10.5,40.5 L28.5,40.5" id="Path-6-Copy-4"></path>
            </g>
        </g>
    </g>
</svg>