<?xml version="1.0" encoding="UTF-8"?>
<svg width="49px" height="64px" viewBox="0 0 49 64" version="1.1" xmlns="http://www.w3.org/2000/svg" xmlns:xlink="http://www.w3.org/1999/xlink">
    <!-- Generator: Sketch 52.6 (67491) - http://www.bohemiancoding.com/sketch -->
    <title>assignment</title>
    <desc>Created with Sketch.</desc>
    <g id="website" stroke="none" stroke-width="1" fill="none" fill-rule="evenodd">
        <g id="icons-" transform="translate(-155.000000, -504.000000)" stroke="#333333" stroke-width="3">
            <g id="assignment" transform="translate(157.000000, 506.000000)">
                <path d="M30.6122449,15.1530612 L44.5408163,15.1530612 C44.9693878,15.1530612 45.3061224,14.8163265 45.3061224,14.3877551 C45.3061224,13.0255102 44.7091837,11.7397959 43.6683673,10.8826531 L31.9897959,1.14795918 C31.1020408,0.413265306 30,0.0153061224 28.8367347,0.0153061224 C28.2091837,0.0153061224 27.7040816,0.520408163 27.7040816,1.14795918 L27.7040816,12.244898 C27.7040816,13.8520408 29.005102,15.1530612 30.6122449,15.1530612 Z" id="Path"></path>
                <path d="M23.6358754,12.9795918 L23.6358754,1.2244898 L4.64017186,1.2244898 C2.08807734,1.2244898 0,3.34040816 0,5.92653061 L0,55.2979592 C0,57.8840816 2.08807734,60 4.64017186,60 L39.4414608,60 C41.9935553,60 44.0816327,57.8840816 44.0816327,55.2979592 L44.0816327,19.5918367 L30.1611171,19.5918367 C26.5649839,19.5918367 23.6358754,16.6236735 23.6358754,12.9795918 Z" id="Path-2"></path>
                <path d="M7.34693878,33.6734694 L34.8979592,33.6734694" id="Path-6"></path>
                <path d="M7.34693878,45.9183673 L34.8979592,45.9183673" id="Path-6-Copy"></path>
            </g>
        </g>
    </g>
</svg>