<?xml version="1.0" encoding="UTF-8"?>
<svg width="44px" height="52px" viewBox="0 0 44 52" version="1.1" xmlns="http://www.w3.org/2000/svg" xmlns:xlink="http://www.w3.org/1999/xlink">
    <!-- Generator: sketchtool 52.6 (67491) - http://www.bohemiancoding.com/sketch -->
    <title>2C374B71-0065-4524-8FBB-2FA91140FDA8</title>
    <desc>Created with sketchtool.</desc>
    <g id="website" stroke="none" stroke-width="1" fill="none" fill-rule="evenodd">
        <g id="icons-" transform="translate(-395.000000, -64.000000)" fill="#B0B0B0" fill-rule="nonzero" stroke="#B0B0B0">
            <g id="notifications" transform="translate(396.000000, 65.000000)">
                <path d="M21.1193182,8.71045673 C21.9644489,8.71045673 23.9723352,9.24879808 23.9723352,9.24879808 C29.4119318,10.5044471 33.240733,15.5515625 33.240733,21.25 L33.240733,36.5879808 L34.3528977,37.7134615 L35.2821477,38.653726 L6.71785227,38.653726 L7.64710227,37.7134615 L8.75926705,36.5879808 L8.75926705,21.25 C8.75926705,15.5516827 12.5880682,10.5044471 18.0276648,9.24879808 C18.0276648,9.24879808 20.1805227,8.71045673 20.8806818,8.71045673 L21.1193182,8.71045673 Z M21,0 C18.8997614,0 17.2940966,1.62475962 17.2940966,3.75 L17.2940966,5.49987981 C10.2525341,7.12524038 4.94108523,13.625 4.94108523,21.25 L4.94108523,35 L0,40 L0,42.5 L42,42.5 L42,40 L37.0589148,35 L37.0589148,21.25 C37.0589148,13.625 31.7473466,7.12524038 24.7059034,5.49987981 L24.7059034,3.75 C24.7059034,1.62475962 23.1002386,0 21,0 Z M25.9410852,45 L16.0587955,45 C16.0587955,47.7501202 18.2820511,50 21,50 C23.7179489,50 25.9410852,47.7501202 25.9410852,45 Z" id="Shape"></path>
            </g>
        </g>
    </g>
</svg>