<?xml version="1.0" encoding="UTF-8"?>
<svg width="50px" height="47px" viewBox="0 0 50 47" version="1.1" xmlns="http://www.w3.org/2000/svg" xmlns:xlink="http://www.w3.org/1999/xlink">
    <!-- Generator: sketchtool 52.6 (67491) - http://www.bohemiancoding.com/sketch -->
    <title>B36DCFEA-8907-475A-BA6D-AB95B3B6461A</title>
    <desc>Created with sketchtool.</desc>
    <g id="website" stroke="none" stroke-width="1" fill="none" fill-rule="evenodd">
        <g id="icons-" transform="translate(-1118.000000, -733.000000)">
            <g id="Blended" transform="translate(1118.000000, 733.000000)">
                <ellipse id="Oval" stroke="#47B59D" stroke-width="2" cx="28" cy="16.5" rx="8" ry="8.5"></ellipse>
                <path d="M45.238058,1.45661261e-13 L4.76194196,1.45661261e-13 C2.14263393,1.45661261e-13 0,2.14252232 0,4.76183036 L0,32.738058 C0,35.3573661 2.14263393,37.5 4.76194196,37.5 L20.238058,37.5 L15.4762277,42.8571429 L15.4762277,46.4285714 L34.5237723,46.4285714 L34.5237723,42.8571429 L29.761942,37.5 L45.238058,37.5 C47.8573661,37.5 50,35.3573661 50,32.738058 L50,4.76183036 C50,2.14252232 47.8573661,1.45661261e-13 45.238058,1.45661261e-13 Z M45.238058,32.1428571 L4.76194196,32.1428571 L4.76194196,4.76183036 L45.238058,4.76183036 L45.238058,32.1428571 Z" id="Shape-Copy-2" fill="#858585" fill-rule="nonzero"></path>
                <rect id="Rectangle" stroke="#858585" stroke-width="2" x="16" y="17" width="12" height="13" rx="2"></rect>
            </g>
        </g>
    </g>
</svg>