<?xml version="1.0" encoding="UTF-8"?>
<svg width="50px" height="46px" viewBox="0 0 50 46" version="1.1" xmlns="http://www.w3.org/2000/svg" xmlns:xlink="http://www.w3.org/1999/xlink">
    <!-- Generator: sketchtool 52.6 (67491) - http://www.bohemiancoding.com/sketch -->
    <title>90735160-D9E6-40C3-8E3B-246574DCB3DC</title>
    <desc>Created with sketchtool.</desc>
    <g id="website" stroke="none" stroke-width="1" fill="none" fill-rule="evenodd">
        <g id="icons-" transform="translate(-220.000000, -509.000000)" fill="#333333">
            <g id="discussion-group" transform="translate(220.000000, 509.000000)">
                <path d="M41.2924279,0 L1.1546875,0 C0.616706731,0 0,0.448619792 0,0.977380208 L0,26.6387917 C0,27.1674323 0.616706731,27.671875 1.1546875,27.671875 L8.05288462,27.671875 L8.05288462,38.3206354 L18.8855769,27.671875 L41.2924279,27.671875 C41.8305288,27.671875 42.1875,27.1674323 42.1875,26.6387917 L42.1875,0.977380208 C42.1875,0.448619792 41.8304087,0 41.2924279,0 Z" id="Path"></path>
                <path d="M49.0860577,7.546875 L45.1923077,7.546875 L45.1923077,27.5005729 C45.1923077,29.4156823 44.3611779,30.6666667 42.1692308,30.6666667 L20.4442308,30.6666667 L15.768149,35.3385417 L31.355649,35.3385417 L42.1875,46 L42.1875,35.3385417 L49.0860577,35.3385417 C49.6242788,35.3385417 50,34.8279896 50,34.2985104 L50,8.63733854 C50,8.10857813 49.6242788,7.546875 49.0860577,7.546875 Z" id="Path"></path>
            </g>
        </g>
    </g>
</svg>