<?xml version="1.0" encoding="UTF-8"?>
<svg width="50px" height="47px" viewBox="0 0 50 47" version="1.1" xmlns="http://www.w3.org/2000/svg" xmlns:xlink="http://www.w3.org/1999/xlink">
    <!-- Generator: sketchtool 52.6 (67491) - http://www.bohemiancoding.com/sketch -->
    <title>9F8FCF0E-50E2-4311-B60B-727F11E99199</title>
    <desc>Created with sketchtool.</desc>
    <g id="website" stroke="none" stroke-width="1" fill="none" fill-rule="evenodd">
        <g id="icons-" transform="translate(-761.000000, -508.000000)" fill="#5d6663" fill-rule="nonzero">
            <path d="M806.238058,508 L765.761942,508 C763.142634,508 761,510.142522 761,512.76183 L761,540.738058 C761,543.357366 763.142634,545.5 765.761942,545.5 L781.238058,545.5 L776.476228,550.857143 L776.476228,554.428571 L795.523772,554.428571 L795.523772,550.857143 L790.761942,545.5 L806.238058,545.5 C808.857366,545.5 811,543.357366 811,540.738058 L811,512.76183 C811,510.142522 808.857366,508 806.238058,508 Z M806.238058,540.142857 L765.761942,540.142857 L765.761942,512.76183 L806.238058,512.76183 L806.238058,540.142857 Z" id="Shape"></path>
        </g>
    </g>
</svg>