<?xml version="1.0" encoding="UTF-8"?>
<svg width="50px" height="35px" viewBox="0 0 50 35" version="1.1" xmlns="http://www.w3.org/2000/svg" xmlns:xlink="http://www.w3.org/1999/xlink">
    <!-- Generator: sketchtool 52.6 (67491) - http://www.bohemiancoding.com/sketch -->
    <title>A0F5206E-003F-4269-87A1-3E21E01E2750</title>
    <desc>Created with sketchtool.</desc>
    <g id="website" stroke="none" stroke-width="1" fill="none" fill-rule="evenodd">
        <g id="icons-" transform="translate(-993.000000, -519.000000)" fill="#333333" fill-rule="nonzero">
            <g id="folder2" transform="translate(993.000000, 519.000000)">
                <path d="M45.2381696,5.25 L25.0006696,5.25 L20.2386161,0 L4.76183036,0 C2.14252232,0 0,2.09978125 0,4.66670312 L0,30.3332969 C0,32.9002188 2.14252232,35 4.76183036,35 L45.2381696,35 C47.8574777,35 50,32.9002188 50,30.3332969 L50,9.91670313 C50,7.34978125 47.8574777,5.25 45.2381696,5.25 Z M46.4285714,30.3332969 C46.4285714,30.9657031 45.8833705,31.5 45.2381696,31.5 L4.76183036,31.5 C4.11651786,31.5 3.57142857,30.9657031 3.57142857,30.3332969 L3.57142857,8.75 L45.2381696,8.75 C45.8833705,8.75 46.4285714,9.28429688 46.4285714,9.91670313 L46.4285714,30.3332969 Z" id="Shape"></path>
            </g>
        </g>
    </g>
</svg>