<?xml version="1.0" encoding="UTF-8"?>
<svg width="41px" height="50px" viewBox="0 0 41 50" version="1.1" xmlns="http://www.w3.org/2000/svg" xmlns:xlink="http://www.w3.org/1999/xlink">
    <!-- Generator: sketchtool 52.6 (67491) - http://www.bohemiancoding.com/sketch -->
    <title>6B6F7423-52D1-4CB9-AA2C-26F2E7E9CD92</title>
    <desc>Created with sketchtool.</desc>
    <g id="website" stroke="none" stroke-width="1" fill="none" fill-rule="evenodd">
        <g id="icons-" transform="translate(-292.000000, -502.000000)" fill="#333333">
            <g id="glossary" transform="translate(292.000000, 502.000000)">
                <path d="M6,49.1102267 L6,0.61429664 C6.63923984,0.449767676 7.30940086,0.36226167 8,0.36226167 L28,0.36226167 C32.418278,0.36226167 36,3.94398367 36,8.36226167 L36,41.3622617 C36,45.7805397 32.418278,49.3622617 28,49.3622617 L8,49.3622617 C7.30940086,49.3622617 6.63923984,49.2747557 6,49.1102267 Z M4,48.2920041 C1.60879452,46.9087664 3.62633767e-16,44.3233911 0,41.3622617 L0,8.36226167 C-3.62633655e-16,5.40113316 1.60879352,2.81575852 3.99999777,1.43252052 L4,48.2920041 Z M12,13 L12,24 L29,24 L29,13 L12,13 Z" id="Combined-Shape"></path>
                <path d="M36.6,10 L37.1,10 C39.0329966,10 40.6,11.5670034 40.6,13.5 L40.6,16.5 C40.6,18.4329966 39.0329966,20 37.1,20 L36.6,20 L36.6,10 Z" id="Rectangle"></path>
                <path d="M36.6,21 L37.1,21 C39.0329966,21 40.6,22.5670034 40.6,24.5 L40.6,27.5 C40.6,29.4329966 39.0329966,31 37.1,31 L36.6,31 L36.6,21 Z" id="Rectangle-Copy-3"></path>
            </g>
        </g>
    </g>
</svg>