<?xml version="1.0" encoding="UTF-8"?>
<svg width="44px" height="34px" viewBox="0 0 44 34" version="1.1" xmlns="http://www.w3.org/2000/svg" xmlns:xlink="http://www.w3.org/1999/xlink">
    <!-- Generator: sketchtool 52.6 (67491) - http://www.bohemiancoding.com/sketch -->
    <title>BAB68FC5-0BB8-48D5-A5EC-9E75A3CEBE74</title>
    <desc>Created with sketchtool.</desc>
    <g id="website" stroke="none" stroke-width="1" fill="none" fill-rule="evenodd">
        <g id="icons-" transform="translate(-1052.000000, -70.000000)" stroke="#5d6663">
            <g id="Group" transform="translate(1052.000000, 70.000000)">
                <path d="M0.5,0.5 L0.5,13.5 C0.5,14.6045695 1.3954305,15.5 2.5,15.5 L20.5,15.5 L20.5,2.5 C20.5,1.3954305 19.6045695,0.5 18.5,0.5 L0.5,0.5 Z" id="Rectangle-Copy-13"></path>
                <path d="M23.5,0.5 L23.5,13.5 C23.5,14.6045695 24.3954305,15.5 25.5,15.5 L43.5,15.5 L43.5,2.5 C43.5,1.3954305 42.6045695,0.5 41.5,0.5 L23.5,0.5 Z" id="Rectangle-Copy-16" transform="translate(33.500000, 8.000000) scale(-1, 1) translate(-33.500000, -8.000000) "></path>
                <path d="M0.5,18.5 L0.5,31.5 C0.5,32.6045695 1.3954305,33.5 2.5,33.5 L20.5,33.5 L20.5,20.5 C20.5,19.3954305 19.6045695,18.5 18.5,18.5 L0.5,18.5 Z" id="Rectangle-Copy-18" transform="translate(10.500000, 26.000000) scale(1, -1) translate(-10.500000, -26.000000) "></path>
                <path d="M23.5,18.5 L23.5,31.5 C23.5,32.6045695 24.3954305,33.5 25.5,33.5 L43.5,33.5 L43.5,20.5 C43.5,19.3954305 42.6045695,18.5 41.5,18.5 L23.5,18.5 Z" id="Rectangle-Copy-17" transform="translate(33.500000, 26.000000) scale(-1, -1) translate(-33.500000, -26.000000) "></path>
            </g>
        </g>
    </g>
</svg>