<?xml version="1.0" encoding="UTF-8"?>
<svg width="44px" height="33px" viewBox="0 0 44 33" version="1.1" xmlns="http://www.w3.org/2000/svg" xmlns:xlink="http://www.w3.org/1999/xlink">
    <!-- Generator: sketchtool 52.6 (67491) - http://www.bohemiancoding.com/sketch -->
    <title>41931351-002F-4279-8BE5-B72BD94D1E45</title>
    <desc>Created with sketchtool.</desc>
    <g id="website" stroke="none" stroke-width="1" fill="none" fill-rule="evenodd">
        <g id="icons-" transform="translate(-1108.000000, -70.000000)" stroke="#5d6663">
            <g id="Group-2" transform="translate(1108.000000, 70.000000)">
                <path d="M0.5,0.5 L0.5,7.6875 C0.5,8.13623136 0.863768641,8.5 1.3125,8.5 L8.5,8.5 L8.5,1.3125 C8.5,0.863768641 8.13623136,0.5 7.6875,0.5 L0.5,0.5 Z" id="Rectangle-Copy-19" transform="translate(4.500000, 4.500000) scale(-1, 1) translate(-4.500000, -4.500000) "></path>
                <path d="M0.5,12.5 L0.5,19.6875 C0.5,20.1362314 0.863768641,20.5 1.3125,20.5 L8.5,20.5 L8.5,13.3125 C8.5,12.8637686 8.13623136,12.5 7.6875,12.5 L0.5,12.5 Z" id="Rectangle-Copy-20" transform="translate(4.500000, 16.500000) scale(-1, 1) translate(-4.500000, -16.500000) "></path>
                <path d="M0.5,24.5 L0.5,31.6875 C0.5,32.1362314 0.863768641,32.5 1.3125,32.5 L8.5,32.5 L8.5,25.3125 C8.5,24.8637686 8.13623136,24.5 7.6875,24.5 L0.5,24.5 Z" id="Rectangle-Copy-21" transform="translate(4.500000, 28.500000) scale(-1, 1) translate(-4.500000, -28.500000) "></path>
                <path d="M10.5,0.5 L10.5,7.6875 C10.5,8.13623136 10.8637686,8.5 11.3125,8.5 L43.5,8.5 L43.5,1.3125 C43.5,0.863768641 43.1362314,0.5 42.6875,0.5 L10.5,0.5 Z" id="Rectangle-Copy-23" transform="translate(27.000000, 4.500000) scale(-1, 1) translate(-27.000000, -4.500000) "></path>
                <path d="M10.5,12.5 L10.5,19.6875 C10.5,20.1362314 10.8637686,20.5 11.3125,20.5 L43.5,20.5 L43.5,13.3125 C43.5,12.8637686 43.1362314,12.5 42.6875,12.5 L10.5,12.5 Z" id="Rectangle-Copy-24" transform="translate(27.000000, 16.500000) scale(-1, 1) translate(-27.000000, -16.500000) "></path>
                <path d="M10.5,24.5 L10.5,31.6875 C10.5,32.1362314 10.8637686,32.5 11.3125,32.5 L43.5,32.5 L43.5,25.3125 C43.5,24.8637686 43.1362314,24.5 42.6875,24.5 L10.5,24.5 Z" id="Rectangle-Copy-25" transform="translate(27.000000, 28.500000) scale(-1, 1) translate(-27.000000, -28.500000) "></path>
            </g>
        </g>
    </g>
</svg>