<?xml version="1.0" encoding="UTF-8"?>
<svg width="44px" height="33px" viewBox="0 0 44 33" version="1.1" xmlns="http://www.w3.org/2000/svg" xmlns:xlink="http://www.w3.org/1999/xlink">
    <!-- Generator: sketchtool 52.6 (67491) - http://www.bohemiancoding.com/sketch -->
    <title>E11125CC-3BBA-4807-829F-77DF79A96B65</title>
    <desc>Created with sketchtool.</desc>
    <g id="website" stroke="none" stroke-width="1" fill="none" fill-rule="evenodd">
        <g id="icons-" transform="translate(-1108.000000, -202.000000)" fill="#333333" stroke="#333333" stroke-width="4">
            <g id="Group-2-Copy" transform="translate(1108.000000, 202.000000)">
                <path d="M2,2 L2,7 L7,7 L7,2 L2,2 Z" id="Rectangle-Copy-19" transform="translate(4.500000, 4.500000) scale(-1, 1) translate(-4.500000, -4.500000) "></path>
                <path d="M2,14 L2,19 L7,19 L7,14 L2,14 Z" id="Rectangle-Copy-20" transform="translate(4.500000, 16.500000) scale(-1, 1) translate(-4.500000, -16.500000) "></path>
                <path d="M2,26 L2,31 L7,31 L7,26 L2,26 Z" id="Rectangle-Copy-21" transform="translate(4.500000, 28.500000) scale(-1, 1) translate(-4.500000, -28.500000) "></path>
                <path d="M12,2 L12,7 L42,7 L42,2 L12,2 Z" id="Rectangle-Copy-23" transform="translate(27.000000, 4.500000) scale(-1, 1) translate(-27.000000, -4.500000) "></path>
                <path d="M12,14 L12,19 L42,19 L42,14 L12,14 Z" id="Rectangle-Copy-24" transform="translate(27.000000, 16.500000) scale(-1, 1) translate(-27.000000, -16.500000) "></path>
                <path d="M12,26 L12,31 L42,31 L42,26 L12,26 Z" id="Rectangle-Copy-25" transform="translate(27.000000, 28.500000) scale(-1, 1) translate(-27.000000, -28.500000) "></path>
            </g>
        </g>
    </g>
</svg>