<?xml version="1.0" encoding="UTF-8"?>
<svg width="50px" height="42px" viewBox="0 0 50 42" version="1.1" xmlns="http://www.w3.org/2000/svg" xmlns:xlink="http://www.w3.org/1999/xlink">
    <!-- Generator: sketchtool 52.6 (67491) - http://www.bohemiancoding.com/sketch -->
    <title>9C922E7A-C3BF-4EB5-BDF4-E583F71FA705</title>
    <desc>Created with sketchtool.</desc>
    <g id="website" stroke="none" stroke-width="1" fill="none" fill-rule="evenodd">
        <g id="icons-" transform="translate(-844.000000, -510.000000)">
            <g id="in-class-icon" transform="translate(844.000000, 510.000000)">
                <g id="e-learning-module-copy" fill="#333333" fill-rule="nonzero">
                    <path d="M45.238058,0 L4.76194196,0 C2.14263393,0 0,2.14252232 0,4.76183036 L0,36.3094866 C0,38.9287946 2.14263393,41.0714286 4.76194196,41.0714286 L20.238058,41.0714286 L29.761942,41.0714286 L45.238058,41.0714286 C47.8573661,41.0714286 50,38.9287946 50,36.3094866 L50,4.76183036 C50,2.14252232 47.8573661,0 45.238058,0 Z M45.238058,32.1428571 L4.76194196,32.1428571 L4.76194196,4.76183036 L45.238058,4.76183036 L45.238058,32.1428571 Z" id="Shape"></path>
                </g>
                <rect id="Rectangle" fill="#333333" x="25" y="27" width="15" height="7"></rect>
                <polyline id="Path-7" stroke="#333333" stroke-width="3" points="13 24.4202128 22 15 27.5 21.4255319 37.5 11"></polyline>
            </g>
        </g>
    </g>
</svg>