<?xml version="1.0" encoding="UTF-8"?>
<svg width="36px" height="58px" viewBox="0 0 36 58" version="1.1" xmlns="http://www.w3.org/2000/svg" xmlns:xlink="http://www.w3.org/1999/xlink">
    <!-- Generator: sketchtool 52.6 (67491) - http://www.bohemiancoding.com/sketch -->
    <title>3C81510F-9FE2-4AE8-9A82-0C987F99CE1A</title>
    <desc>Created with sketchtool.</desc>
    <g id="website" stroke="none" stroke-width="1" fill="none" fill-rule="evenodd">
        <g id="icons-" transform="translate(-368.000000, -498.000000)">
            <g id="Interactive-content-1" transform="translate(368.000000, 498.000000)">
                <path d="M8,4.29878355e-13 L28,4.28990177e-13 C32.418278,4.28157509e-13 36,3.581722 36,8 L36,41 C36,45.418278 32.418278,49 28,49 L8,49 C3.581722,49 5.41083001e-16,45.418278 0,41 L0,8 C-5.41083001e-16,3.581722 3.581722,4.28046487e-13 8,4.2721382e-13 Z M4,4.63773833 L4,43.2448813 L31.7179488,43.2448813 L31.7179488,4.63773833 L4,4.63773833 Z" id="Combined-Shape-Copy" fill="#333333"></path>
                <path d="M6.5,17.5 L29.375,17.5" id="Path-6" stroke="#333333" stroke-width="3"></path>
                <path d="M6.5,25.5 L29.375,25.5" id="Path-6-Copy" stroke="#333333" stroke-width="3"></path>
                <circle id="Oval-Copy-2" fill="#D8D8D8" cx="18" cy="46" r="2"></circle>
                <g id="Group-6-Copy" transform="translate(10.000000, 20.000000)">
                    <path d="M17,31.0322581 C17,18.8978495 17,12.7311828 17,12.5322581 C17,12.233871 16.0895847,11.9354839 15.4821429,11.9354839 C15.0771816,11.9354839 14.6724197,12.1344086 14.2678571,12.5322581 L14.2678571,14.9193548" id="Path-8" stroke="#979797" stroke-width="0.6"></path>
                    <path d="M14.2678571,15.2177419 C14.2678571,12.4327957 14.2678571,10.9408602 14.2678571,10.7419355 C14.2678571,10.4435484 13.6607143,9.5483871 12.5982143,9.5483871 C11.889881,9.5483871 11.3333333,9.64784946 10.9285714,9.84677419 L10.9285714,13.4274194" id="Path-10" stroke="#979797" stroke-width="0.6"></path>
                    <path d="M10.9285714,13.4274194 L10.9285714,9.25 C11.0098788,8.73314466 10.9086884,8.3352952 10.625,8.05645161 C10.1994675,7.63818623 9.70845641,7.45967742 9.10714286,7.45967742 C8.70626715,7.45967742 8.30150525,7.65860215 7.89285714,8.05645161 L7.89285714,13.4274194" id="Path-11" stroke="#979797" stroke-width="0.6"></path>
                    <path d="M7.58928571,13.4274194 C7.58928571,5.66935484 7.58928571,1.69086022 7.58928571,1.49193548 C7.58928571,1.19354839 6.83035714,0.298387097 6.07142857,0.298387097 C5.3125,0.298387097 4.55357143,1.19354839 4.55357143,1.49193548 C4.55357143,1.69086022 4.55357143,7.36021505 4.55357143,18.5" id="Path-12" stroke="#979797" stroke-width="0.6"></path>
                    <polyline id="Path-13" stroke="#979797" stroke-width="0.6" points="1.82142857 13.1290323 1.13686838e-13 14.9193548 1.13686838e-13 23.2741935 3.94642857 28.3467742 3.94642857 31.0322581 3.94642857 36.7016129 17 36.7016129 17 30.4354839"></polyline>
                    <rect id="Rectangle" fill="#333333" x="3.64285714" y="31.6290323" width="13.3571429" height="5.37096774"></rect>
                </g>
            </g>
        </g>
    </g>
</svg>