<?xml version="1.0" encoding="UTF-8"?>
<svg width="46px" height="46px" viewBox="0 0 46 46" version="1.1" xmlns="http://www.w3.org/2000/svg" xmlns:xlink="http://www.w3.org/1999/xlink">
    <!-- Generator: sketchtool 52.6 (67491) - http://www.bohemiancoding.com/sketch -->
    <title>FF97D55C-B743-4C8F-8E08-0A5FEBD1BB76</title>
    <desc>Created with sketchtool.</desc>
    <g id="website" stroke="none" stroke-width="1" fill="none" fill-rule="evenodd">
        <g id="icons-" transform="translate(-1095.000000, -521.000000)" fill="#333333" fill-rule="nonzero">
            <g id="label" transform="translate(1095.000000, 521.000000)">
                <path d="M42.1766234,0 L23.2509091,0 L1.61298701,22.4729167 C0.657142857,23.43125 0.143376623,24.6890625 0.119480519,25.946875 C0.0836363636,27.3005208 0.585454545,28.6541667 1.61298701,29.684375 L16.3927273,44.490625 C17.3485714,45.4489583 18.8779221,45.9880208 19.8337662,45.9880208 C20.7896104,45.9880208 22.5579221,45.5208333 23.5854545,44.490625 L46,23 L46,3.83333333 L42.1766234,0 Z M38.5085714,12.3026042 C35.9158442,13.0333333 33.574026,11.1046875 33.574026,8.625 C33.574026,6.5046875 35.2825974,4.79166667 37.3974026,4.79166667 C39.8706494,4.79166667 41.7942857,7.13958333 41.0654545,9.7390625 C40.718961,10.9729167 39.7392208,11.9552083 38.5085714,12.3026042 Z" id="Shape"></path>
            </g>
        </g>
    </g>
</svg>