<?xml version="1.0" encoding="UTF-8"?>
<svg width="50px" height="39px" viewBox="0 0 50 39" version="1.1" xmlns="http://www.w3.org/2000/svg" xmlns:xlink="http://www.w3.org/1999/xlink">
    <!-- Generator: sketchtool 52.6 (67491) - http://www.bohemiancoding.com/sketch -->
    <title>D2600F9D-1BB6-402A-8ACB-E5B602C273B4</title>
    <desc>Created with sketchtool.</desc>
    <g id="website" stroke="none" stroke-width="1" fill="none" fill-rule="evenodd">
        <g id="icons-" transform="translate(-490.000000, -159.000000)" fill="#333333">
            <g id="_ionicons_svg_md-mail-unread" transform="translate(490.000000, 159.000000)">
                <ellipse id="Oval" cx="43.1034483" cy="6.76422764" rx="6.89655172" ry="6.76422764"></ellipse>
                <path d="M37.8125,14.7333333 L24.137931,23.6747967 L5.17241379,11.2772358 L5.17241379,6.76422764 L24.137931,19.1617886 L35.0323276,12.0382114 C34.0086207,10.5268293 33.4051724,8.70894309 33.4051724,6.76422764 C33.4051724,4.90406504 33.9547414,3.1601626 34.9030172,1.69105691 L4.6012931,1.69105691 C2.06896552,1.69105691 0,3.7203252 0,6.20406504 L0,34.3918699 C0,36.8756098 2.06896552,38.904878 4.6012931,38.904878 L43.6853448,38.904878 C46.2176724,38.904878 48.2866379,36.8756098 48.2866379,34.3918699 L48.2866379,14.8073171 C46.7887931,15.7373984 45.0107759,16.2764228 43.1142241,16.2764228 C41.1530172,16.2764228 39.3318966,15.7056911 37.8125,14.7333333 Z" id="Path"></path>
            </g>
        </g>
    </g>
</svg>