<?xml version="1.0" encoding="UTF-8"?>
<svg width="42px" height="50px" viewBox="0 0 42 50" version="1.1" xmlns="http://www.w3.org/2000/svg" xmlns:xlink="http://www.w3.org/1999/xlink">
    <!-- Generator: sketchtool 52.6 (67491) - http://www.bohemiancoding.com/sketch -->
    <title>2B181EA2-A74B-4FD4-A99D-20396B803453</title>
    <desc>Created with sketchtool.</desc>
    <g id="website" stroke="none" stroke-width="1" fill="none" fill-rule="evenodd">
        <g id="icons-" transform="translate(-913.000000, -286.000000)" fill="#333333" fill-rule="nonzero">
            <path d="M950.333297,291.357143 L940.779391,291.357143 C940.002391,288.276339 937.261672,286 934,286 C930.738328,286 927.997609,288.276339 927.220609,291.357143 L917.666703,291.357143 C915.099781,291.357143 913,293.499777 913,296.119085 L913,331.237946 C913,333.857254 915.099781,336 917.666703,336 L950.333297,336 C952.900219,336 955,333.857254 955,331.237946 L955,296.119085 C955,293.499777 952.900219,291.357143 950.333297,291.357143 Z M934,291.357143 C935.282859,291.357143 936.333297,292.42846 936.333297,293.738058 C936.333297,295.047656 935.282859,296.119085 934,296.119085 C932.717141,296.119085 931.666703,295.047656 931.666703,293.738058 C931.666703,292.42846 932.717141,291.357143 934,291.357143 Z M950.625,331.535714 L917.375,331.535714 L917.375,295.821429 L921.75,295.821429 L921.75,303.857143 L946.25,303.857143 L946.25,295.821429 L950.625,295.821429 L950.625,331.535714 Z" id="Shape"></path>
        </g>
    </g>
</svg>