<?xml version="1.0" encoding="UTF-8"?>
<svg width="54px" height="55px" viewBox="0 0 54 55" version="1.1" xmlns="http://www.w3.org/2000/svg" xmlns:xlink="http://www.w3.org/1999/xlink">
    <!-- Generator: sketchtool 52.6 (67491) - http://www.bohemiancoding.com/sketch -->
    <title>850D2EA1-D63C-46DD-A83D-262E397BD5CD</title>
    <desc>Created with sketchtool.</desc>
    <g id="website" stroke="none" stroke-width="1" fill="none" fill-rule="evenodd">
        <g id="icons-" transform="translate(-523.000000, -499.000000)" fill="#333333" fill-rule="nonzero">
            <g id="on-the-job-icon" transform="translate(523.000000, 499.000000)">
                <path d="M53.1495536,25.1138393 C53.0290179,25.1138393 52.9151786,25.1339286 52.8080357,25.1808036 L40.9151786,31.3482143 L40.9084821,31.3482143 C40.3995536,31.6629464 40.0714286,32.1852679 40.0714286,32.78125 L40.0714286,45.2299107 C40.0714286,45.6584821 40.4464286,46 40.921875,46 C41.0691964,46 41.2098214,45.9665179 41.3303571,45.90625 C41.34375,45.8995536 41.3571429,45.8928571 41.3638393,45.8861607 L53.0625,39.6785714 L53.0825893,39.671875 C53.6316964,39.3705357 54,38.8214286 54,38.1919643 L54,25.8839286 C54,25.4553571 53.6183036,25.1138393 53.1495536,25.1138393 Z M52.2790179,21.7924107 L40.1116071,16.3214286 C40.1116071,16.3214286 39.3950893,16 39,16 C38.6049107,16 37.8950893,16.3214286 37.8950893,16.3214286 L25.7142857,21.7924107 C25.7142857,21.7924107 25.1785714,22.0133929 25.1785714,22.4285714 C25.1785714,22.8705357 25.734375,23.1986607 25.734375,23.1986607 L38.15625,29.7477679 C38.4107143,29.8616071 38.6986607,29.921875 39,29.921875 C39.3080357,29.921875 39.5959821,29.8549107 39.8504464,29.7410714 L52.265625,23.1852679 C52.265625,23.1852679 52.7678571,22.9174107 52.7678571,22.4151786 C52.7745536,21.9933036 52.2790179,21.7924107 52.2790179,21.7924107 Z M37.0915179,31.3482143 L25.1919643,25.1741071 C25.0915179,25.1339286 24.9709821,25.1071429 24.8504464,25.1071429 C24.3816964,25.1071429 24,25.4486607 24,25.8772321 L24,38.1852679 C24,38.8147321 24.3683036,39.3638393 24.9174107,39.6651786 L24.9308036,39.671875 L36.6294643,45.8794643 C36.7566964,45.953125 36.9107143,45.9933036 37.0714286,45.9933036 C37.5401786,45.9933036 37.921875,45.6450893 37.921875,45.2232143 L37.921875,32.78125 C37.9285714,32.1852679 37.59375,31.65625 37.0915179,31.3482143 Z" id="Shape"></path>
                <path d="M35.1495536,9.11383929 C35.0290179,9.11383929 34.9151786,9.13392857 34.8080357,9.18080357 L22.9151786,15.3482143 L22.9084821,15.3482143 C22.3995536,15.6629464 22.0714286,16.1852679 22.0714286,16.78125 L22.0714286,29.2299107 C22.0714286,29.6584821 22.4464286,30 22.921875,30 C23.0691964,30 23.2098214,29.9665179 23.3303571,29.90625 C23.34375,29.8995536 23.3571429,29.8928571 23.3638393,29.8861607 L35.0625,23.6785714 L35.0825893,23.671875 C35.6316964,23.3705357 36,22.8214286 36,22.1919643 L36,9.88392857 C36,9.45535714 35.6183036,9.11383929 35.1495536,9.11383929 Z M34.2790179,5.79241071 L22.1116071,0.321428571 C22.1116071,0.321428571 21.3950893,0 21,0 C20.6049107,0 19.8950893,0.321428571 19.8950893,0.321428571 L7.71428571,5.79241071 C7.71428571,5.79241071 7.17857143,6.01339286 7.17857143,6.42857143 C7.17857143,6.87053571 7.734375,7.19866071 7.734375,7.19866071 L20.15625,13.7477679 C20.4107143,13.8616071 20.6986607,13.921875 21,13.921875 C21.3080357,13.921875 21.5959821,13.8549107 21.8504464,13.7410714 L34.265625,7.18526786 C34.265625,7.18526786 34.7678571,6.91741071 34.7678571,6.41517857 C34.7745536,5.99330357 34.2790179,5.79241071 34.2790179,5.79241071 Z M19.0915179,15.3482143 L7.19196429,9.17410714 C7.09151786,9.13392857 6.97098214,9.10714286 6.85044643,9.10714286 C6.38169643,9.10714286 6,9.44866071 6,9.87723214 L6,22.1852679 C6,22.8147321 6.36830357,23.3638393 6.91741071,23.6651786 L6.93080357,23.671875 L18.6294643,29.8794643 C18.7566964,29.953125 18.9107143,29.9933036 19.0714286,29.9933036 C19.5401786,29.9933036 19.921875,29.6450893 19.921875,29.2232143 L19.921875,16.78125 C19.9285714,16.1852679 19.59375,15.65625 19.0915179,15.3482143 Z" id="Shape"></path>
                <path d="M29.1495536,34.1138393 C29.0290179,34.1138393 28.9151786,34.1339286 28.8080357,34.1808036 L16.9151786,40.3482143 L16.9084821,40.3482143 C16.3995536,40.6629464 16.0714286,41.1852679 16.0714286,41.78125 L16.0714286,54.2299107 C16.0714286,54.6584821 16.4464286,55 16.921875,55 C17.0691964,55 17.2098214,54.9665179 17.3303571,54.90625 C17.34375,54.8995536 17.3571429,54.8928571 17.3638393,54.8861607 L29.0625,48.6785714 L29.0825893,48.671875 C29.6316964,48.3705357 30,47.8214286 30,47.1919643 L30,34.8839286 C30,34.4553571 29.6183036,34.1138393 29.1495536,34.1138393 Z M28.2790179,30.7924107 L16.1116071,25.3214286 C16.1116071,25.3214286 15.3950893,25 15,25 C14.6049107,25 13.8950893,25.3214286 13.8950893,25.3214286 L1.71428571,30.7924107 C1.71428571,30.7924107 1.17857143,31.0133929 1.17857143,31.4285714 C1.17857143,31.8705357 1.734375,32.1986607 1.734375,32.1986607 L14.15625,38.7477679 C14.4107143,38.8616071 14.6986607,38.921875 15,38.921875 C15.3080357,38.921875 15.5959821,38.8549107 15.8504464,38.7410714 L28.265625,32.1852679 C28.265625,32.1852679 28.7678571,31.9174107 28.7678571,31.4151786 C28.7745536,30.9933036 28.2790179,30.7924107 28.2790179,30.7924107 Z M13.0915179,40.3482143 L1.19196429,34.1741071 C1.09151786,34.1339286 0.970982143,34.1071429 0.850446429,34.1071429 C0.381696429,34.1071429 0,34.4486607 0,34.8772321 L0,47.1852679 C0,47.8147321 0.368303571,48.3638393 0.917410714,48.6651786 L0.930803571,48.671875 L12.6294643,54.8794643 C12.7566964,54.953125 12.9107143,54.9933036 13.0714286,54.9933036 C13.5401786,54.9933036 13.921875,54.6450893 13.921875,54.2232143 L13.921875,41.78125 C13.9285714,41.1852679 13.59375,40.65625 13.0915179,40.3482143 Z" id="Shape"></path>
            </g>
        </g>
    </g>
</svg>