<?xml version="1.0" encoding="UTF-8"?>
<svg width="44px" height="53px" viewBox="0 0 44 53" version="1.1" xmlns="http://www.w3.org/2000/svg" xmlns:xlink="http://www.w3.org/1999/xlink">
    <!-- Generator: sketchtool 52.6 (67491) - http://www.bohemiancoding.com/sketch -->
    <title>2F2B5FB1-0EC9-4919-88FC-31C8B4ABF17C</title>
    <desc>Created with sketchtool.</desc>
    <g id="website" stroke="none" stroke-width="1" fill="none" fill-rule="evenodd">
        <g id="icons-" transform="translate(-671.000000, -501.000000)">
            <g id="quiz" transform="translate(673.000000, 503.000000)">
                <g id="Group-3-Copy-3" stroke="#333333" stroke-width="3">
                    <path d="M25,12.375 L36.375,12.375 C36.725,12.375 37,12.1 37,11.75 C37,10.6375 36.5125,9.5875 35.6625,8.8875 L26.125,0.9375 C25.4,0.3375 24.5,0.0125 23.55,0.0125 C23.0375,0.0125 22.625,0.425 22.625,0.9375 L22.625,10 C22.625,11.3125 23.6875,12.375 25,12.375 Z" id="Path"></path>
                    <path d="M36,22.5 C36,21.0555556 36,18.8888889 36,16 C32.8888889,16 30.5555556,16 29,16 C28.0292398,16 26.5730994,16 24.6315789,16 C21.6947368,16 19.3026316,13.576 19.3026316,10.6 L19.3026316,1 L3.78947368,1 C1.70526316,1 0,2.728 0,4.84 L0,45.16 C0,47.272 1.70526316,49 3.78947368,49 C9.88304094,49 14.4532164,49 17.5,49" id="Path-2"></path>
                    <path d="M10.5,27.5 L19.5,27.5" id="Path-6"></path>
                    <path d="M4.5,27.5 L7.5,27.5" id="Path-6-Copy-2"></path>
                    <path d="M4.5,37.5 L7.5,37.5" id="Path-6-Copy-3"></path>
                    <path d="M10.5,37.5 L16.5,37.5" id="Path-6-Copy"></path>
                </g>
                <g id="Group-4" transform="translate(18.000000, 21.000000)">
                    <path d="M11.0154008,29.1774892 C5.06431516,29.1774892 0.240007024,24.0704343 0.240007024,17.7705628 C0.240007024,11.4706913 5.06431516,6.36363636 11.0154008,6.36363636 C16.9664865,6.36363636 21.7907946,11.4706913 21.7907946,17.7705628 C21.7907946,24.0704343 16.9664865,29.1774892 11.0154008,29.1774892 Z M9.12889591,1.70752301e-12 L14.8335162,1.70752301e-12 L14.8335162,3.35497835 L12.9319761,3.35497835 L12.9319761,5.36796537 L11.3473593,5.36796537 L11.3473593,3.35497835 L9.12889591,3.35497835 L9.12889591,1.70752301e-12 Z M19.0154008,6.34939444 L20.3794662,5.36796537 L23.1111111,9.069228 L21.7470458,10.0506571 L19.0154008,6.34939444 Z" id="Combined-Shape" stroke="#333333" stroke-width="1.296"></path>
                    <path d="M13.0780801,16.5367965 L8.59520929,21.4740004 L7.22735583,20.0756621 L11.5038941,15.3657023 L11.5038941,9.15584416 L13.4054342,9.15584416 L13.4054342,16.5367965 L13.0780801,16.5367965 Z" id="Combined-Shape" fill="#333333"></path>
                </g>
            </g>
        </g>
    </g>
</svg>