<?xml version="1.0" encoding="UTF-8"?>
<svg width="48px" height="48px" viewBox="0 0 48 48" version="1.1" xmlns="http://www.w3.org/2000/svg" xmlns:xlink="http://www.w3.org/1999/xlink">
    <!-- Generator: sketchtool 52.6 (67491) - http://www.bohemiancoding.com/sketch -->
    <title>DD16315D-9846-4FE3-9239-D73351F60DD7</title>
    <desc>Created with sketchtool.</desc>
    <g id="website" stroke="none" stroke-width="1" fill="none" fill-rule="evenodd">
        <g id="icons-" transform="translate(-699.000000, -66.000000)" fill="#B0B0B0" fill-rule="nonzero">
            <g id="search" transform="translate(699.000000, 66.000000)">
                <path d="M34.188625,30.1715 L32.001,30.1715 L31.179625,29.48575 C33.7785,26.33175 35.419875,22.354 35.419875,17.828625 C35.41975,7.954 27.487,0 17.641875,0 C7.9315,0 0,7.954 0,17.828625 C0,27.70325 7.9315,35.657125 17.778125,35.657125 C22.1545,35.657125 26.257,34.01125 29.402,31.406125 L30.222125,32.092 L30.222125,34.285875 L43.8975,48 L48,43.88575 L34.188625,30.1715 Z M17.778125,30.1715 C10.940375,30.1715 5.47025,24.685625 5.47025,17.828625 C5.47025,10.971375 10.940375,5.485875 17.778125,5.485875 C24.615625,5.485875 30.085875,10.971375 30.085875,17.828625 C30.085875,24.685625 24.615625,30.1715 17.778125,30.1715 Z" id="Shape"></path>
            </g>
        </g>
    </g>
</svg>