<?xml version="1.0" encoding="UTF-8"?>
<svg width="50px" height="50px" viewBox="0 0 50 50" version="1.1" xmlns="http://www.w3.org/2000/svg" xmlns:xlink="http://www.w3.org/1999/xlink">
    <!-- Generator: sketchtool 52.6 (67491) - http://www.bohemiancoding.com/sketch -->
    <title>10DEA221-5FC1-4931-8A25-E6F8840FA277</title>
    <desc>Created with sketchtool.</desc>
    <g id="website" stroke="none" stroke-width="1" fill="none" fill-rule="evenodd">
        <g id="icons-" transform="translate(-897.000000, -66.000000)" fill="#000000" fill-rule="nonzero">
            <g id="settings" transform="translate(897.000000, 66.000000)">
                <path d="M43.8955742,27.5 C44.0223684,26.750601 44.0223684,25.8752404 44.0223684,25 C44.0223684,24.1247596 43.8955742,23.3752404 43.8955742,22.5 L49.2385167,18.3752404 C49.7480861,18.0004808 49.8747608,17.375601 49.4933014,16.7504808 L44.4037081,8.125 C44.1490431,7.62451923 43.3861244,7.37560096 42.876555,7.62451923 L36.5145933,10.1246394 C35.2421053,9.12487981 33.7162679,8.24951923 32.1892344,7.62451923 L31.2983254,0.999879808 C31.1715311,0.500600962 30.6620813,0.000120192308 30.0258373,0.000120192308 L19.8466507,0.000120192308 C19.2105263,0.000120192308 18.7010766,0.500600962 18.5742823,0.999879808 L17.5565789,7.62451923 C16.0294258,8.24951923 14.6302632,9.12475962 13.2299043,10.1246394 L6.86794258,7.62451923 C6.23169856,7.37560096 5.59545455,7.62451923 5.34078947,8.125 L0.251196172,16.750601 C-0.00227272727,17.2497596 0.124282297,18.0004808 0.505861244,18.3753606 L5.97727273,22.5 C5.97727273,23.3752404 5.85047847,24.1247596 5.85047847,25 C5.85047847,25.8752404 5.97727273,26.6247596 5.97727273,27.5 L0.634210526,31.6247596 C0.124641148,31.9995192 -0.0019138756,32.624399 0.379425837,33.2495192 L5.46901914,41.875 C5.72380383,42.3754808 6.48672249,42.624399 6.99617225,42.3754808 L13.3582536,39.8753606 C14.630622,40.8751202 16.1565789,41.7504808 17.6836124,42.3754808 L18.7013158,49.0001202 C18.8291866,49.6251202 19.3374402,49.9998798 19.9736842,49.9998798 L30.1528708,49.9998798 C30.7891148,49.9998798 31.2985646,49.499399 31.4253589,49.0001202 L32.4442584,42.3754808 C33.9702153,41.7504808 35.3705742,40.8752404 36.7696172,39.8753606 L43.1316986,42.3754808 C43.767823,42.624399 44.404067,42.3754808 44.6588517,41.875 L49.748445,33.249399 C50.00311,32.7502404 49.8752392,31.9995192 49.4936603,31.6246394 L43.8955742,27.5 Z M24.9363636,33.75 C19.9735646,33.75 16.0296651,29.875601 16.0296651,25 C16.0296651,20.124399 19.9735646,16.25 24.9363636,16.25 C29.8991627,16.25 33.8431818,20.124399 33.8431818,25 C33.8431818,29.875601 29.8991627,33.75 24.9363636,33.75 Z" id="Shape"></path>
            </g>
        </g>
    </g>
</svg>