<?xml version="1.0" ?><!DOCTYPE svg  PUBLIC '-//W3C//DTD SVG 1.1//EN'  'http://www.w3.org/Graphics/SVG/1.1/DTD/svg11.dtd'><svg height="6.82666in" style="shape-rendering:geometricPrecision; text-rendering:geometricPrecision; image-rendering:optimizeQuality; fill-rule:evenodd; clip-rule:evenodd" viewBox="0 0 6.82666 6.82666" width="6.82666in" xml:space="preserve" xmlns="http://www.w3.org/2000/svg" xmlns:xlink="http://www.w3.org/1999/xlink"><defs><style type="text/css">
   <![CDATA[
    .fil1 {fill:none}
    .fil0 {fill:black}
   ]]>
  </style></defs><g id="Layer_x0020_1"><polygon class="fil0" points="1.87447,4.60662 1.87447,1.9024 1.23265,1.9024 1.23265,4.60662 "/><polygon class="fil0" points="2.4725,2.50645 2.4725,4.60662 3.11431,4.60662 3.11431,2.50645 "/><polygon class="fil0" points="3.71234,3.12506 3.71234,4.60662 4.35416,4.60662 4.35416,3.12506 "/><polygon class="fil0" points="4.9522,1.82874 4.9522,4.60662 5.59401,4.60662 5.59401,1.82874 "/><polygon class="fil0" points="4.9122,4.68662 4.8722,4.68662 4.43416,4.68662 4.39416,4.68662 3.67234,4.68662 3.63234,4.68662 3.19431,4.68662 3.15431,4.68662 2.4325,4.68662 2.3925,4.68662 1.95447,4.68662 1.91447,4.68662 1.19265,4.68662 1.15265,4.68662 0.853331,4.68662 0.853331,5.16924 5.97333,5.16924 5.97333,4.68662 5.67401,4.68662 5.63401,4.68662 "/></g><rect class="fil1" height="6.82666" width="6.82666"/></svg>