<?xml version="1.0" encoding="UTF-8"?>
<svg width="50px" height="50px" viewBox="0 0 50 50" version="1.1" xmlns="http://www.w3.org/2000/svg" xmlns:xlink="http://www.w3.org/1999/xlink">
    <!-- Generator: sketchtool 52.6 (67491) - http://www.bohemiancoding.com/sketch -->
    <title>A7823055-8FC2-44BD-A684-165B4F2B7656</title>
    <desc>Created with sketchtool.</desc>
    <g id="website" stroke="none" stroke-width="1" fill="none" fill-rule="evenodd">
        <g id="icons-" transform="translate(-1181.000000, -514.000000)" fill="#333333" fill-rule="nonzero">
            <g id="url-icon" transform="translate(1181.000000, 514.000000)">
                <path d="M25,0 C11.1927885,0 0,11.1929087 0,25 C0,38.8070913 11.1927885,50 25,50 C38.8070913,50 50,38.8070913 50,25 C50,11.1929087 38.8070913,0 25,0 Z M22.409976,46.2739183 C17.6667067,45.7058894 13.2780048,43.5825721 9.84759615,40.1522837 C5.80024038,36.1049279 3.57139423,30.7237981 3.57139423,25 C3.57139423,19.8473558 5.37860577,14.9730769 8.69170673,11.0986779 C8.77704327,12.1223558 8.98774038,13.2198317 8.93377404,14.0043269 C8.73665865,16.8643029 8.45444712,18.6542067 10.1284856,21.0670673 C10.780649,22.006851 10.9408654,23.3540865 11.2582933,24.4418269 C11.56875,25.5060096 12.8090144,26.0641827 13.6644231,26.7198317 C15.3902644,28.0430288 17.0413462,29.5810096 18.8713942,30.7455529 C20.0792067,31.5141827 20.8336538,31.8965144 20.4799279,33.3704327 C20.1954327,34.5557692 20.1159856,35.2859375 19.5027644,36.3419471 C19.315625,36.6641827 20.2091346,38.7359375 20.5064904,39.0332933 C21.4076923,39.934375 22.3019231,40.7610577 23.2842548,41.5723558 C24.8072115,42.830649 23.1362981,44.465625 22.409976,46.2739183 Z M40.1522837,40.1522837 C37.0713942,43.2331731 33.2173077,45.258774 29.0277644,46.0514423 C29.6215144,44.5831731 30.678726,43.2786058 31.659375,42.5223558 C32.5123798,41.8641827 33.5807692,40.5981971 34.0263221,39.5954327 C34.4715144,38.5939904 35.0612981,37.7258413 35.6581731,36.8049279 C36.5073317,35.4949519 33.5645433,33.519351 32.6109375,33.1052885 C30.465024,32.1736779 28.8496394,30.9165865 26.9425481,29.5746394 C25.583774,28.6186298 22.8251202,30.0739183 21.2911058,29.4043269 C19.190024,28.486899 17.4590144,26.8927885 15.6326923,25.5174279 C13.7480769,24.0980769 13.8391827,22.4433894 13.8391827,20.3495192 C15.3153846,20.4039663 17.4153846,19.9409856 18.3954327,21.128125 C18.7046875,21.5027644 19.7680288,23.1764423 20.4798077,22.5817308 C21.0612981,22.0957933 20.0489183,20.1479567 19.8533654,19.690024 C19.2518029,18.2819712 21.2240385,17.7328125 22.2335337,16.7780048 C23.5508413,15.5323317 26.3765625,13.578726 26.1532452,12.6858173 C25.9299279,11.7929087 23.3258413,9.26310096 21.7963942,9.6578125 C21.5671875,9.71694712 19.5491587,11.8329327 19.1592548,12.1649038 C19.1695913,11.4742788 19.1799279,10.783774 19.1905048,10.093149 C19.1971154,9.65709135 18.3770433,9.20949519 18.4151442,8.92824519 C18.5112981,8.21742788 20.4899038,6.92740385 20.9820913,6.36129808 C20.6372596,6.14579327 19.4605769,5.13509615 19.1044471,5.28341346 C18.2421875,5.64278846 17.2683894,5.89038462 16.4061298,6.24963942 C16.4061298,5.95060096 16.3698317,5.66971154 16.3265625,5.39230769 C18.0629858,4.62415737 19.8946349,4.09249001 21.772476,3.81153846 L23.4652644,4.49182692 L24.6604567,5.91021635 L25.8532452,7.14014423 L26.8959135,7.47608173 L28.5520433,5.91418269 L28.125,4.79915865 L28.125,3.796875 C31.4002404,4.27259615 34.4932692,5.49447115 37.2021635,7.37860577 C36.7175481,7.42199519 36.184976,7.49326923 35.5841346,7.56971154 C35.3359375,7.42307692 35.0175481,7.35649038 34.7469952,7.25444712 C35.5319712,8.9421875 36.3507212,10.6066106 37.1825721,12.2719952 C38.0711538,14.0509615 40.0423077,15.9591346 40.3884615,17.8370192 C40.7963942,20.0504808 40.5133413,22.0610577 40.7365385,24.6652644 C40.9514423,27.1730769 43.5639423,30.022476 43.5639423,30.022476 C43.5639423,30.022476 44.7703125,30.4334135 45.7735577,30.2902644 C44.8383413,33.9901442 42.9210337,37.3832933 40.1522837,40.1522837 Z" id="Shape"></path>
            </g>
        </g>
    </g>
</svg>