<?xml version="1.0" encoding="UTF-8"?>
<svg width="200px" height="80px" viewBox="0 0 200 80" version="1.1" xmlns="http://www.w3.org/2000/svg" xmlns:xlink="http://www.w3.org/1999/xlink" style="background: #A8B7C7;">
    <!-- Generator: Sketch 49.3 (51167) - http://www.bohemiancoding.com/sketch -->
    <title>Tile0102</title>
    <desc>Created with Sketch.</desc>
    <defs>
        <linearGradient x1="50%" y1="0%" x2="50%" y2="100%" id="linearGradient-1">
            <stop stop-color="#FFFFFF" offset="0%"></stop>
            <stop stop-color="#000000" offset="100%"></stop>
        </linearGradient>
    </defs>
    <g id="Tile0102" stroke="none" stroke-width="1" fill="none" fill-rule="evenodd">
        <g id="Group" transform="translate(5.000000, 6.000000)" fill="#96A1AC">
            <rect id="Rectangle-2" x="184.948454" y="0" width="10.0515464" height="10"></rect>
            <rect id="Rectangle-2-Copy" x="164.845361" y="0" width="10.0515464" height="10"></rect>
            <rect id="Rectangle-2-Copy-2" x="143.737113" y="0" width="10.0515464" height="10"></rect>
            <rect id="Rectangle-2-Copy-3" x="122.628866" y="0" width="10.0515464" height="10"></rect>
            <rect id="Rectangle-2-Copy-4" x="102.525773" y="0" width="10.0515464" height="10"></rect>
            <rect id="Rectangle-2-Copy-5" x="81.4175258" y="0" width="10.0515464" height="10"></rect>
            <rect id="Rectangle-2-Copy-6" x="62.3195876" y="0" width="10.0515464" height="10"></rect>
            <rect id="Rectangle-2-Copy-7" x="41.2113402" y="0" width="10.0515464" height="10"></rect>
            <rect id="Rectangle-2-Copy-8" x="21.1082474" y="0" width="10.0515464" height="10"></rect>
            <rect id="Rectangle-2-Copy-9" x="0" y="0" width="10.0515464" height="10"></rect>
            <rect id="Rectangle-2-Copy-19" x="184.948454" y="22" width="10.0515464" height="10"></rect>
            <rect id="Rectangle-2-Copy-18" x="164.845361" y="22" width="10.0515464" height="10"></rect>
            <rect id="Rectangle-2-Copy-17" x="143.737113" y="22" width="10.0515464" height="10"></rect>
            <rect id="Rectangle-2-Copy-16" x="122.628866" y="22" width="10.0515464" height="10"></rect>
            <rect id="Rectangle-2-Copy-15" x="102.525773" y="22" width="10.0515464" height="10"></rect>
            <rect id="Rectangle-2-Copy-14" x="81.4175258" y="22" width="10.0515464" height="10"></rect>
            <rect id="Rectangle-2-Copy-13" x="62.3195876" y="22" width="10.0515464" height="10"></rect>
            <rect id="Rectangle-2-Copy-12" x="41.2113402" y="22" width="10.0515464" height="10"></rect>
            <rect id="Rectangle-2-Copy-11" x="21.1082474" y="22" width="10.0515464" height="10"></rect>
            <rect id="Rectangle-2-Copy-10" x="0" y="22" width="10.0515464" height="10"></rect>
            <rect id="Rectangle-2-Copy-29" x="184.948454" y="43" width="10.0515464" height="10"></rect>
            <rect id="Rectangle-2-Copy-28" x="164.845361" y="43" width="10.0515464" height="10"></rect>
            <rect id="Rectangle-2-Copy-27" x="143.737113" y="43" width="10.0515464" height="10"></rect>
            <rect id="Rectangle-2-Copy-26" x="122.628866" y="43" width="10.0515464" height="10"></rect>
            <rect id="Rectangle-2-Copy-25" x="102.525773" y="43" width="10.0515464" height="10"></rect>
            <rect id="Rectangle-2-Copy-24" x="81.4175258" y="43" width="10.0515464" height="10"></rect>
            <rect id="Rectangle-2-Copy-23" x="62.3195876" y="43" width="10.0515464" height="10"></rect>
            <rect id="Rectangle-2-Copy-22" x="41.2113402" y="43" width="10.0515464" height="10"></rect>
            <rect id="Rectangle-2-Copy-21" x="21.1082474" y="43" width="10.0515464" height="10"></rect>
            <rect id="Rectangle-2-Copy-20" x="0" y="43" width="10.0515464" height="10"></rect>
            <rect id="Rectangle-2-Copy-39" x="184.948454" y="65" width="10.0515464" height="10"></rect>
            <rect id="Rectangle-2-Copy-38" x="164.845361" y="65" width="10.0515464" height="10"></rect>
            <rect id="Rectangle-2-Copy-37" x="143.737113" y="65" width="10.0515464" height="10"></rect>
            <rect id="Rectangle-2-Copy-36" x="122.628866" y="65" width="10.0515464" height="10"></rect>
            <rect id="Rectangle-2-Copy-35" x="102.525773" y="65" width="10.0515464" height="10"></rect>
            <rect id="Rectangle-2-Copy-34" x="81.4175258" y="65" width="10.0515464" height="10"></rect>
            <rect id="Rectangle-2-Copy-33" x="62.3195876" y="65" width="10.0515464" height="10"></rect>
            <rect id="Rectangle-2-Copy-32" x="41.2113402" y="65" width="10.0515464" height="10"></rect>
            <rect id="Rectangle-2-Copy-31" x="21.1082474" y="65" width="10.0515464" height="10"></rect>
            <rect id="Rectangle-2-Copy-30" x="0" y="65" width="10.0515464" height="10"></rect>
        </g>
        <g id="Group-Copy" transform="translate(5.000000, 6.000000)" fill="#CCD8E5">
            <rect id="Rectangle-2" x="180" y="0" width="10" height="10"></rect>
            <rect id="Rectangle-2-Copy" x="160" y="0" width="10" height="10"></rect>
            <rect id="Rectangle-2-Copy-2" x="140" y="0" width="10" height="10"></rect>
            <rect id="Rectangle-2-Copy-3" x="120" y="0" width="10" height="10"></rect>
            <rect id="Rectangle-2-Copy-4" x="100" y="0" width="10" height="10"></rect>
            <rect id="Rectangle-2-Copy-5" x="80" y="0" width="10" height="10"></rect>
            <rect id="Rectangle-2-Copy-6" x="60" y="0" width="10" height="10"></rect>
            <rect id="Rectangle-2-Copy-7" x="40" y="0" width="10" height="10"></rect>
            <rect id="Rectangle-2-Copy-8" x="20" y="0" width="10" height="10"></rect>
            <rect id="Rectangle-2-Copy-9" x="0" y="0" width="10" height="10"></rect>
            <rect id="Rectangle-2-Copy-19" x="180" y="20" width="10" height="10"></rect>
            <rect id="Rectangle-2-Copy-18" x="160" y="20" width="10" height="10"></rect>
            <rect id="Rectangle-2-Copy-17" x="140" y="20" width="10" height="10"></rect>
            <rect id="Rectangle-2-Copy-16" x="120" y="20" width="10" height="10"></rect>
            <rect id="Rectangle-2-Copy-15" x="100" y="20" width="10" height="10"></rect>
            <rect id="Rectangle-2-Copy-14" x="80" y="20" width="10" height="10"></rect>
            <rect id="Rectangle-2-Copy-13" x="60" y="20" width="10" height="10"></rect>
            <rect id="Rectangle-2-Copy-12" x="40" y="20" width="10" height="10"></rect>
            <rect id="Rectangle-2-Copy-11" x="20" y="20" width="10" height="10"></rect>
            <rect id="Rectangle-2-Copy-10" x="0" y="20" width="10" height="10"></rect>
            <rect id="Rectangle-2-Copy-29" x="180" y="40" width="10" height="10"></rect>
            <rect id="Rectangle-2-Copy-28" x="160" y="40" width="10" height="10"></rect>
            <rect id="Rectangle-2-Copy-27" x="140" y="40" width="10" height="10"></rect>
            <rect id="Rectangle-2-Copy-26" x="120" y="40" width="10" height="10"></rect>
            <rect id="Rectangle-2-Copy-25" x="100" y="40" width="10" height="10"></rect>
            <rect id="Rectangle-2-Copy-24" x="80" y="40" width="10" height="10"></rect>
            <rect id="Rectangle-2-Copy-23" x="60" y="40" width="10" height="10"></rect>
            <rect id="Rectangle-2-Copy-22" x="40" y="40" width="10" height="10"></rect>
            <rect id="Rectangle-2-Copy-21" x="20" y="40" width="10" height="10"></rect>
            <rect id="Rectangle-2-Copy-20" x="0" y="40" width="10" height="10"></rect>
            <rect id="Rectangle-2-Copy-39" x="180" y="60" width="10" height="10"></rect>
            <rect id="Rectangle-2-Copy-38" x="160" y="60" width="10" height="10"></rect>
            <rect id="Rectangle-2-Copy-37" x="140" y="60" width="10" height="10"></rect>
            <rect id="Rectangle-2-Copy-36" x="120" y="60" width="10" height="10"></rect>
            <rect id="Rectangle-2-Copy-35" x="100" y="60" width="10" height="10"></rect>
            <rect id="Rectangle-2-Copy-34" x="80" y="60" width="10" height="10"></rect>
            <rect id="Rectangle-2-Copy-33" x="60" y="60" width="10" height="10"></rect>
            <rect id="Rectangle-2-Copy-32" x="40" y="60" width="10" height="10"></rect>
            <rect id="Rectangle-2-Copy-31" x="20" y="60" width="10" height="10"></rect>
            <rect id="Rectangle-2-Copy-30" x="0" y="60" width="10" height="10"></rect>
        </g>
        <rect id="Rectangle" fill-opacity="0.3" fill="url(#linearGradient-1)" style="mix-blend-mode: multiply;" x="0" y="0" width="200" height="80"></rect>
    </g>
</svg>